<svg width="1064" height="750" viewBox="0 0 1064 750" fill="none" xmlns="http://www.w3.org/2000/svg">
<path fill-rule="evenodd" clip-rule="evenodd" d="M198.089 130.679C200.212 128.084 202.903 126.657 206.794 127.221C208.685 127.496 210.638 129.433 212.608 132.278L224.576 129.642L217.36 140.481C218.361 142.421 219.358 144.438 220.344 146.434C222.482 150.76 224.569 154.983 226.545 158.087C228.722 161.509 232.193 164.685 235.759 167.948C242.202 173.844 248.956 180.024 248.956 188.457C248.956 196.221 244.162 201.969 238.015 206.505L237.882 217.336L229.434 212.319L229.469 219.199L223.49 214.938L223.479 214.943L223.479 214.943L223.479 214.943C221.004 216.201 218.719 217.362 216.836 218.478C210.16 222.432 205.047 231.576 205.047 231.576C205.047 231.576 197.138 221.534 192.385 216.731C192.233 216.577 192.077 216.425 191.918 216.273L187.255 220.56L186.54 212.106C186.255 211.915 185.966 211.726 185.675 211.536L178.982 222.124L173.912 207.854L169.15 210.954L170.049 200.919C166.114 197.343 163.344 193.091 163.344 187.477C163.344 178.351 168.696 173.217 175.54 166.652L175.54 166.652C178.185 164.115 181.053 161.365 183.921 158.087C187.924 153.512 190.276 147.534 192.433 142.051C192.958 140.715 193.472 139.408 193.995 138.159L192.172 126.731L198.089 130.679ZM184.901 187.185C184.901 179.48 195.693 174.446 205.304 174.446C228.708 172.626 230.648 184.109 228.177 194.583C225.906 204.212 210.705 203.564 202.904 201.138C195.102 198.711 184.901 194.891 184.901 187.185Z" fill="#FFF"/>
<path fill-rule="evenodd" clip-rule="evenodd" d="M412.915 135.003C415.919 133.665 419.51 133.038 422.925 133.038C426.945 133.038 429.752 134.228 431.958 136.119L439.257 132.202L436.26 141.507C436.845 142.462 437.413 143.459 437.992 144.475L437.993 144.475C439.737 147.534 441.579 150.765 444.274 153.559C445.47 154.798 446.615 155.937 447.708 157.023L447.708 157.023L447.708 157.023C454.303 163.582 458.979 168.232 461.24 181.502C461.466 182.829 461.633 184.158 461.746 185.485L467.683 193.276L462.075 194.459L469.731 202.213L462.306 204.152L469.142 216.011L458.779 214.68L460.926 223.015L454.515 221.23C451.142 228.816 447.89 233.688 447.89 233.688C447.89 233.688 450.234 214.173 442.278 212.938C423.048 209.954 415.135 215.983 412.098 223.033L412.175 223.118L412.045 223.158C408.857 230.714 411.208 239.385 411.208 239.385C411.208 239.385 406.448 234.366 401.138 226.502L391.783 229.371L396.084 219.419L383.441 214.603L390.572 208.797L383.262 204.099L388.874 201.206C386.65 193.273 385.983 184.85 388.388 176.716C390.716 168.838 395.308 162.648 399.198 157.403C402.83 152.505 405.852 148.432 405.852 144.577C405.852 143.406 406.043 142.331 406.393 141.35L406.337 128.972L412.915 135.003ZM460.137 204.718C460.074 204.99 460.009 205.26 459.944 205.53L460.557 204.609L460.137 204.718ZM457.233 214.481L457.4 214.502L457.128 214.77C457.163 214.674 457.198 214.577 457.233 214.481ZM409.749 168.202C410.094 167.966 410.439 167.73 410.783 167.494C417.836 162.645 424.726 166.499 428.032 171.308C431.338 176.117 434.131 188.873 427.077 193.721C419.784 198.735 398.955 199.604 397.361 185.663C396.408 177.326 403.03 172.797 409.749 168.202ZM453.257 181.368C452.272 175.957 440.05 172.045 438.136 177.405C436.414 182.228 441.034 193.28 447.196 191.673C454.753 189.701 453.98 185.339 453.257 181.368Z" fill="#FFF"/>
<path fill-rule="evenodd" clip-rule="evenodd" d="M642.731 155.173C645.054 155.173 646.914 156.09 648.495 157.508L658.873 151.939L654.371 165.915C656.577 169.695 658.779 173.019 662.25 173.019C680.096 173.019 669.5 127.846 669.5 127.846C669.5 127.846 682.843 132.782 688.891 156.227L693.902 155.722L691.041 161.944L699.031 163.056L692.745 170.997L701.246 176.072L691.795 182.997C691.577 192.09 688.553 200.054 684.114 207.074L688.114 217.12L676.454 217.043C670.496 223.64 663.71 229.245 657.845 234.088L657.845 234.088C651.055 239.695 645.501 244.282 643.899 248.208C642.38 247.092 640.876 245.994 639.389 244.909L639.386 244.907L639.384 244.905L639.379 244.902L639.371 244.896L639.367 244.893L639.367 244.893C629.879 237.968 621.08 231.546 613.635 224.323L597.561 223.368L603.014 211.931C596.537 202.529 592.181 191.273 590.866 176.365C590.803 175.662 590.773 174.927 590.773 174.163L580.029 165.654L588.379 161.464L584.539 155.829L594.914 154.129C598.703 143.44 604.289 133.832 608.154 132.865C608.154 132.865 600.904 175.25 620.056 173.019C623.397 172.63 625.269 169.999 627.123 166.87L626.691 167.025L623.063 152.64L633.396 158.278C635.624 156.43 638.551 155.173 642.731 155.173ZM651.096 193.096C643.576 195.804 622.239 194.065 620.862 188.931C619.485 183.796 628.045 178.415 635.565 175.707C643.085 172.999 654.387 177.185 655.764 182.319C655.865 182.697 655.967 183.064 656.066 183.419C657.31 187.885 658.062 190.588 651.096 193.096ZM622.719 211.36C626.37 210.879 633.705 203.391 633.054 200.278C632.404 197.166 627.341 196.528 623.689 197.009C620.037 197.49 615.485 202.038 616.136 205.15C616.786 208.263 619.067 211.841 622.719 211.36ZM635.186 226.224C632.18 225.187 629.559 217.775 632.346 211.319C635.133 204.862 639.167 198.751 642.173 199.789C645.178 200.826 649.548 225.181 647.75 229.346C646.426 232.413 641.868 229.833 638.357 227.845L638.357 227.845L638.357 227.845L638.357 227.845L638.357 227.845L638.356 227.844L638.356 227.844C637.1 227.133 635.978 226.498 635.186 226.224ZM662.52 215.404C666.561 212.638 664.739 203.84 662.52 201.069C660.3 198.298 654.377 195.162 651.77 196.947C649.163 198.731 649.653 203.868 650.337 208.319C651.77 217.635 658.479 218.17 662.52 215.404Z" fill="#FFF"/>
<path fill-rule="evenodd" clip-rule="evenodd" d="M845.154 128.82C849.442 127.117 854.082 126.173 859.079 126.173C864.047 126.173 868.723 127.465 873.089 129.738L883.681 124.054L880.295 134.566C889.523 142.172 897.042 154.054 902.624 166.416L912.256 169.163L906.164 174.973C910.431 186.267 913.043 197.234 913.827 204.994C913.827 204.994 904.631 196.711 898.437 198.673C896.814 199.187 896.467 203.115 896.643 207.695L902.188 209.21L897.142 214.129C897.683 219.125 898.437 223.396 898.437 223.396C896.968 223.396 895.467 223.34 893.943 223.282L893.942 223.282L893.942 223.282H893.941H893.941C892.259 223.219 890.549 223.155 888.822 223.164L887.589 229.648L881.735 223.794C878.659 224.403 875.58 225.551 872.558 227.643C865.688 232.399 859.079 246.077 859.079 246.077C859.079 246.077 850.825 229.886 841.327 225.442C839.137 224.418 837.075 223.692 835.111 223.24L833.133 229.537L827.702 222.836C823.832 223.355 820.236 225.044 816.589 227.643C816.589 227.643 817.989 223.519 819.337 218.381L815.112 219.658L819.517 210.074L814.416 206.78L821.777 203.077C821.663 200.674 821.028 198.994 819.577 198.673C813.21 197.264 804.121 204.994 804.121 204.994C804.477 195.9 806.473 184.638 810.198 173.501L805.845 171.337L812.469 166.306L806.934 157.605L817.616 156.189C822.876 146.437 829.71 137.875 838.192 132.418L837.354 122.767L845.154 128.82ZM844.203 150.607C843.953 150.676 843.684 150.748 843.4 150.824C837.277 152.466 824.019 156.022 825.754 168.559C827.348 174.392 839.14 173.972 844.806 172.423C850.471 170.874 853.772 164.889 852.177 159.056C852.077 158.692 851.981 158.335 851.887 157.986L851.887 157.982L851.886 157.981C850.473 152.723 849.514 149.155 844.203 150.607ZM873.661 173.621C881.735 172.416 889.179 166.736 887.971 158.637C886.763 150.539 871.748 141.25 863.674 142.454C855.6 143.659 855.646 153.04 856.854 161.138C858.063 169.237 865.587 174.825 873.661 173.621ZM885.842 184.63C885.193 188.872 880.259 193.112 875.091 192.322C869.924 191.532 862.388 185.387 863.036 181.144C863.684 176.902 872.364 175.568 877.531 176.358C882.698 177.148 886.49 180.387 885.842 184.63ZM850.166 187.884C855.48 184.937 858.098 179.454 856.629 176.764C855.16 174.074 845.452 176.616 840.137 179.563C834.823 182.51 831.706 187.08 833.175 189.77C834.644 192.46 844.852 190.831 850.166 187.884ZM853.651 193.115C856.422 190.565 862.463 192.736 867.478 194.538C867.754 194.637 868.027 194.735 868.296 194.831C875.4 197.369 879.368 201.986 873.786 212.09C870.862 214.779 863.385 214.112 859.214 209.636C855.042 205.16 850.727 195.805 853.651 193.115ZM847.338 204.79C849.565 203.19 849.33 199.017 847.556 196.516C845.783 194.016 840.777 194.555 838.551 196.156C836.325 197.757 835.958 201.081 837.731 203.581C839.504 206.081 845.112 206.391 847.338 204.79Z" fill="#FFF"/>
<path fill-rule="evenodd" clip-rule="evenodd" d="M254.899 417.682C258.991 416.423 262.712 415.279 258.923 412.661C253.656 409.022 256.086 401.562 258.147 395.649C258.94 393.376 258.311 390.565 257.613 387.448C256.496 382.458 255.204 376.686 259.292 371.086C264.97 376.29 267.108 375.912 268.485 375.669C268.553 375.657 268.618 375.645 268.682 375.635C269.418 375.513 269.366 375.195 269.264 374.577C269.176 374.041 269.05 373.279 269.369 372.223L269.394 372.139C270.089 369.844 271.383 365.564 267.537 360.396C264.913 356.871 261.042 357.168 258.165 357.388C256.773 357.494 255.613 357.583 254.941 357.212C252.88 356.075 251.506 356.985 252.193 359.032C252.743 360.669 254.865 363.505 255.857 364.718C254.407 366.082 250.865 367.765 248.3 363.58C245.735 359.396 247.842 353.801 249.216 351.526C252.422 352.512 259.522 354.301 262.27 353.573C264.453 352.995 263.769 352.509 262.804 351.823C262.25 351.429 261.604 350.97 261.354 350.389C261.205 350.044 261.163 349.314 261.108 348.344C260.91 344.836 260.533 338.179 254.254 335.151C249.136 332.682 244.859 336.147 241.66 338.739C239.849 340.206 238.383 341.393 237.307 341.064C234.33 340.154 232.727 342.201 235.475 344.703C237.673 346.705 240.819 348.57 242.116 349.252C241.887 351.981 240.009 356.575 234.33 353.118C227.23 348.797 227.001 341.519 228.604 339.927C228.827 339.706 229.133 339.428 229.49 339.104C231.71 337.091 235.908 333.281 234.33 330.147C233.496 328.491 232.472 328.06 231.302 327.567C229.901 326.977 228.29 326.298 226.543 323.324C225.642 321.79 225.157 320.166 224.682 318.574C223.465 314.5 222.309 310.631 214.406 308.996C203.413 306.721 201.123 306.721 201.81 310.36C202.497 313.999 192.878 328.1 186.466 330.147C183.684 331.035 182.626 332.009 181.778 332.789C180.671 333.808 179.92 334.499 176.16 334.241C171.046 333.891 169.055 339.07 167.573 342.924C167.131 344.075 166.734 345.108 166.312 345.84C166.011 346.364 165.561 347.073 165.026 347.914C162.311 352.188 157.415 359.892 158.755 364.263C160.358 369.494 167.228 374.497 169.977 372.678C171.138 371.909 170.049 370.286 168.803 368.429C167.1 365.892 165.104 362.917 168.144 361.079C173.412 357.895 179.824 364.718 180.511 372.223C180.511 374.817 178.991 375.449 176.57 376.455C176.02 376.684 175.422 376.932 174.786 377.227C174.171 377.512 173.563 377.855 172.956 378.198C170.173 379.771 167.406 381.334 164.022 377.227C159.9 372.223 156.007 372.223 154.174 376.317C152.342 380.411 149.365 384.505 146.846 386.097C145.493 386.952 146.717 388.004 148.21 389.288C149.498 390.395 150.985 391.673 151.197 393.147C151.549 395.595 155.42 398.58 158.648 401.07C159.619 401.819 160.532 402.523 161.274 403.154C164.48 405.884 164.334 407.262 160.212 410.446C157.743 412.353 157.417 412.841 156.962 413.122C156.657 413.31 156.295 413.404 155.192 413.769C152.444 414.679 151.767 417.646 159.654 417.646C167.302 417.646 171.651 419.928 176.023 422.221C177.39 422.938 178.759 423.656 180.231 424.306C183.178 425.607 185.813 424.738 188.457 423.866C191.363 422.908 194.28 421.946 197.637 423.851C198.036 424.078 198.413 424.293 198.771 424.498C204.152 427.572 205.197 428.169 214.308 428.169C221.578 428.169 227.183 426.834 232.809 425.493C234.52 425.085 236.232 424.677 237.994 424.306C244.04 423.032 248.758 420.44 250.361 419.302C251.647 418.682 253.301 418.173 254.899 417.682ZM204.329 333.104C202.497 335.378 202.039 336.97 202.955 339.699C203.565 341.519 205.499 341.519 207.942 341.519C209.164 341.519 210.512 341.519 211.886 341.746C216.009 342.429 222.65 341.064 217.841 336.061C213.032 331.057 207.764 330.147 204.329 333.104ZM188.527 349.479C186.236 349.934 184.633 348.797 185.092 345.385C185.55 342.429 189.901 338.79 192.42 339.699C192.821 339.844 193.216 339.966 193.599 340.084L193.6 340.084C195.622 340.707 197.302 341.225 197.687 344.476C198.09 347.878 192.465 348.815 189.548 349.3C189.15 349.367 188.802 349.425 188.527 349.479ZM198.374 354.938C199.062 357.212 200.894 358.577 204.787 357.212C205.187 357.072 205.585 356.936 205.978 356.803C209.402 355.636 212.415 354.61 213.032 351.754C213.719 348.569 213.261 348.115 209.825 347.432C206.39 346.75 198.374 351.071 198.374 354.938ZM226.577 365.031C224.745 368.442 218.299 364.263 215.551 362.216C213.124 360.783 214.098 359.578 215.811 357.457L216.009 357.212C217.841 354.938 222.226 352.436 226.577 354.938C230.739 357.33 228.616 361.258 226.82 364.58L226.819 364.581C226.738 364.732 226.657 364.882 226.577 365.031ZM200.923 366.138C194.74 367.73 195.111 370.918 197.687 376.108C200.163 381.093 202.955 382.853 209.825 383.308C216.696 383.762 217.612 378.136 216.009 373.588C214.406 369.039 207.107 364.546 200.923 366.138Z" fill="#FFF"/>
<path fill-rule="evenodd" clip-rule="evenodd" d="M384.404 426.872C376.932 417.443 378.472 408.68 384.404 400.675C385.23 399.561 386.003 398.545 386.713 397.612C391.106 391.841 393.101 389.22 390.336 385.879C387.37 387.819 381.191 389.76 379.461 389.76C378.468 389.76 378.94 388.802 379.522 387.619C379.955 386.739 380.449 385.736 380.449 384.909C380.449 384.794 380.448 384.663 380.446 384.517C380.415 382.177 380.333 375.919 386.381 371.81C390.963 368.697 394.665 369.9 397.309 370.759C398.373 371.105 399.265 371.395 399.975 371.325C402.446 371.082 405.906 370.84 403.682 373.751C402.875 374.806 402.231 375.861 401.644 376.824C400.611 378.517 399.752 379.924 398.492 380.542C399.975 382.483 402.199 384.909 405.165 379.572C408.131 374.236 410.602 360.652 402.199 350.222C401.611 350.222 400.997 350.224 400.363 350.226C393.799 350.246 385.153 350.272 382.674 348.282C381.28 347.162 382.03 346.553 383.159 345.637C384.231 344.766 385.646 343.617 385.887 341.49C386.381 337.124 388.111 325.966 399.975 321.842C410.369 318.229 417.453 324.166 422.363 328.281C425.042 330.527 427.074 332.23 428.645 331.545C432.352 329.604 431.61 336.881 415.051 345.614C417.275 355.801 421.971 362.35 429.386 362.835C435.318 363.224 437.13 359.601 437.295 357.742C434 354.75 428.051 346.875 430.622 339.307C431.082 337.499 432.21 338.218 433.472 339.022C434.243 339.512 435.063 340.035 435.812 340.035C436.215 340.035 437.091 339.732 438.336 339.302C443.2 337.622 453.705 333.994 463.741 338.822C472.483 343.027 472.547 352.017 472.589 358.022C472.608 360.675 472.622 362.745 473.38 363.563C473.781 363.997 474.163 364.379 474.503 364.719C476.257 366.474 476.899 367.117 473.38 367.929C469.178 368.899 456.326 368.414 452.619 365.989C448.664 370.112 445.946 376.661 453.36 388.062C453.907 387.832 454.477 387.046 455.081 386.216C456.388 384.416 457.848 382.406 459.539 385.394C460.49 387.073 460.928 389.074 461.389 391.178C462.128 394.546 462.923 398.175 465.965 401.16C470.908 406.012 474.369 412.318 470.414 421.05C468.644 424.959 467.963 422.842 466.954 419.702C465.708 415.826 463.96 410.391 459.045 412.803C450.147 417.169 431.363 422.991 419.994 422.506C409.497 422.058 407.217 425.746 405.567 428.414C405.43 428.636 405.297 428.85 405.165 429.055C403.435 431.723 401.952 430.268 400.222 425.659C398.492 421.05 393.702 415.471 389.1 419.352C387.815 420.436 387.082 422.661 386.484 424.477C385.816 426.505 385.316 428.024 384.404 426.872ZM425.103 374.013C424.344 374.726 425.608 377.384 428.478 377.657C432.067 377.999 432.198 375.621 430.367 374.132C430.009 373.84 429.716 373.54 429.451 373.269C428.361 372.155 427.75 371.531 425.103 374.013ZM422.544 389.983C419.072 389.172 418.399 387.317 418.991 385.328C420.843 382.489 428.714 383.048 430.874 385.148C433.034 387.249 433.148 387.796 431.126 389.814C429.311 391.625 426.639 390.975 423.602 390.237L423.601 390.237L423.6 390.237L423.598 390.236C423.251 390.152 422.899 390.066 422.544 389.983ZM429.8 405.13C426.896 406.154 426.226 404.235 425.372 401.791C425.285 401.542 425.196 401.288 425.103 401.031C423.992 398.766 428.251 396.025 430.667 395.208C433.082 394.391 437.454 394.596 439.406 398.459C441.017 401.649 436.406 403.066 432.283 404.333L432.283 404.333C431.412 404.6 430.564 404.861 429.8 405.13Z" fill="#FFF"/>
<path fill-rule="evenodd" clip-rule="evenodd" d="M612.95 426.495C612.193 418.71 617.994 407.661 622.281 402.638C626.568 397.616 622.533 387.069 615.472 383.553C611.999 381.824 609.929 381.735 608.482 381.673C606.987 381.608 606.157 381.573 605.132 379.786C603.114 376.27 610.932 370.746 616.985 371.248L617.064 371.255C623.066 371.753 626.343 372.024 632.62 377.275C638.925 382.549 643.717 380.288 650.021 375.768C650.205 375.637 650.388 375.506 650.572 375.374C656.714 370.981 663.047 366.451 660.109 357.185C657.083 347.642 651.787 343.373 646.743 343.624C641.699 343.876 627.072 348.396 632.62 353.669C638.169 358.943 643.212 369.49 636.908 371.248C634.033 372.049 633.308 370.972 632.199 369.324C630.875 367.358 629.005 364.578 622.281 363.212C618.933 362.532 616.27 362.22 614.196 361.977C608.617 361.324 607.307 361.171 608.41 355.678C609.837 348.577 616.192 338.353 621.352 330.052C621.667 329.546 621.977 329.047 622.281 328.557C627.577 320.019 636.403 313.49 644.473 317.508C649.842 320.181 652.803 320.323 655.005 320.428C657.25 320.536 658.705 320.606 661.118 323.283C662.467 324.627 665.112 327.793 668.215 331.509C674.394 338.908 682.39 348.482 685.58 350.154C688.019 351.432 690.588 350.888 692.69 350.444C694.717 350.015 696.309 349.678 696.929 351.158C698.19 354.172 697.433 360.952 686.841 373.759C676.249 386.566 664.144 405.401 665.909 410.423C666.773 412.88 669.748 414.616 672.445 416.189C675.261 417.832 677.773 419.297 677.258 421.222C676.249 424.988 663.892 423.984 660.866 421.222C657.839 418.459 656.831 423.733 658.344 426.495C659.857 429.257 659.352 433.275 655.317 429.257C654.406 428.35 653.559 427.11 652.699 425.849C649.747 421.526 646.629 416.961 640.186 424.737C631.864 434.782 628.585 436.54 630.855 429.257C631.793 426.249 633.247 423.841 634.542 421.696C636.381 418.648 637.9 416.133 637.16 413.186C635.899 408.163 629.846 409.168 624.046 419.213C618.246 429.257 612.95 433.778 612.95 426.495ZM659.444 391.003C656.237 388.52 653.299 388.422 649.741 389.613C646.184 390.805 645.525 395.185 647.777 397.154C649.443 398.61 652.381 398.992 655.621 399.186C658.861 399.38 663.565 394.192 659.444 391.003Z" fill="#FFF"/>
<path fill-rule="evenodd" clip-rule="evenodd" d="M805.89 414.435C805.497 413.742 805.023 412.907 804.458 411.857C801.82 406.961 801.313 405.272 800.844 403.706C800.769 403.459 800.696 403.214 800.615 402.961C805.344 409.022 809.778 408.827 809.679 403.548C809.66 402.513 809.675 401.173 809.692 399.638C809.761 393.345 809.867 383.767 807.807 378.423C805.246 371.775 806.625 372.558 809.679 378.814C810.561 380.621 811.583 382.339 812.619 384.08C815.169 388.366 817.804 392.794 818.645 399.051C819.827 407.849 823.177 411.857 824.655 408.045C825.447 406 825.078 403.842 824.686 401.557C824.348 399.582 823.994 397.511 824.359 395.336C825.147 390.643 825.443 386.635 821.305 378.423C818.869 373.59 818.652 368.722 818.464 364.498C818.333 361.547 818.215 358.909 817.364 356.818C815.295 351.735 822.684 357.502 825.64 362.097C826.766 363.848 828.007 366.351 829.264 368.887C831.306 373.007 833.39 377.213 835.098 378.423C836.985 379.76 838.687 383.705 840.016 386.783C840.63 388.206 841.164 389.444 841.6 390.154C842.979 392.403 848.3 388.004 845.738 380.281C844.44 376.366 842.534 373.406 840.726 370.598C838.968 367.867 837.302 365.279 836.379 362.097C835.707 359.781 834.794 357.655 834.086 356.006C832.822 353.061 832.213 351.642 834.802 353.396C835.852 354.108 836.829 354.707 837.729 355.259C840.292 356.832 842.233 358.022 843.472 360.337C845.147 363.466 850.467 364.346 848.792 359.849C848.383 358.751 848.063 357.443 847.712 356.015C846.628 351.595 845.261 346.023 840.122 341.958C837.635 339.991 836.018 339.058 834.857 338.387C832.844 337.225 832.2 336.853 830.763 333.258C830.024 331.408 829.158 329.86 828.39 328.484C826.803 325.644 825.627 323.541 826.822 321.038C828.595 317.323 830.467 317.323 833.324 321.527C836.182 325.73 841.206 330.325 842.979 329.641C845.089 328.66 844.993 327.241 844.876 325.502C844.818 324.641 844.754 323.703 844.95 322.7C845.163 321.605 845.056 320.561 844.947 319.508C844.754 317.647 844.559 315.758 846.132 313.51C848.595 309.991 850.566 309.893 851.748 312.924C852.93 315.954 856.871 322.406 858.841 320.744C859.575 320.126 860.103 319.264 860.661 318.354C861.602 316.82 862.624 315.152 864.851 314.292C865.659 313.98 866.365 313.643 866.986 313.347C869.091 312.341 870.221 311.801 871.058 314.292C872.142 317.518 872.733 325.535 872.142 331.303C872.035 332.349 871.889 333.648 871.725 335.101C870.988 341.658 869.902 351.324 870.467 354.765C870.577 355.436 870.687 356.197 870.803 357C871.414 361.223 872.192 366.598 874.014 366.105C874.879 365.871 875.902 365.201 877.181 364.361C879.107 363.098 881.615 361.453 885.048 360.337C888.194 359.315 889.937 357.966 891.131 357.042C892.105 356.288 892.714 355.816 893.422 356.036C894.262 356.296 892.753 358.583 890.667 361.742C888.839 364.512 886.567 367.952 885.048 371.287C881.797 378.423 881.009 383.702 883.866 382.529C886.134 381.598 887.471 379.31 889.257 376.254C889.721 375.461 890.214 374.617 890.762 373.731C892.882 370.303 896.191 365.943 899.193 361.988C899.958 360.981 900.703 359.999 901.403 359.067C901.722 358.64 902.035 358.22 902.339 357.813C905.304 353.831 907.328 351.114 905.54 356.525C904.46 359.795 902.165 364.506 900.15 368.642C898.49 372.048 897.02 375.065 896.575 376.566C896.163 377.956 896.285 378.679 896.387 379.279C896.528 380.114 896.628 380.709 895.196 382.529C892.733 385.657 893.028 392.794 897.954 387.124C898.837 386.108 899.823 384.967 900.872 383.754C905.677 378.197 911.781 371.138 915.097 367.767C916.767 366.07 917.73 364.99 917.985 365.137C918.347 365.346 917.286 368.023 914.801 374.904C913.671 378.036 912.645 380.596 911.818 382.66C909.549 388.326 908.78 390.246 911.452 389.959C912.631 389.832 913.8 389.481 914.672 389.218C916.495 388.67 917.018 388.513 913.619 391.621C908.595 396.216 904.851 404.623 907.314 405.601C908.74 406.167 910.826 404.505 913.113 402.682C914.778 401.357 916.549 399.946 918.25 399.246C921.944 397.726 922.177 397.269 923.396 394.885C923.51 394.662 923.632 394.422 923.767 394.163C925.343 391.132 923.865 397.682 921.599 402.766C920.802 404.555 919.295 406.951 917.73 409.441C914.85 414.023 911.77 418.922 912.535 420.949C912.621 421.175 912.709 421.397 912.796 421.615C913.913 424.421 914.776 426.588 905.462 427.615C900.005 428.218 896.569 429.563 893.018 430.953C886.482 433.511 879.558 436.222 858.94 434.734C855.376 434.477 852.743 434.81 850.349 435.114C846.445 435.608 843.18 436.022 837.561 433.658C836.651 433.275 835.771 432.901 834.914 432.536C827.23 429.268 821.429 426.8 813.442 426.508C806.368 426.249 806.446 425.881 806.981 423.352C807.09 422.838 807.217 422.234 807.308 421.523C807.789 417.779 807.622 417.484 805.89 414.435ZM870.115 410.33C874.403 413.538 876.321 411.628 878.412 407.231C880.421 403.007 880.126 400.262 876.835 395.535C873.544 390.808 869.337 393.151 867.162 396.577C864.986 400.003 865.827 407.122 870.115 410.33ZM855.966 394.146C859.185 393.559 859.786 399.957 859.867 402.823C860.187 405.158 858.879 405.152 856.578 405.141L856.312 405.14C853.847 405.132 849.897 403.575 849.279 399.424C848.688 395.453 852.4 394.787 855.541 394.223L855.541 394.223C855.684 394.197 855.826 394.172 855.966 394.146ZM864.027 417.852C865.174 416.214 865.12 414.303 862.18 412.473C861.878 412.285 861.58 412.096 861.287 411.909L861.287 411.909L861.286 411.909C858.723 410.281 856.468 408.849 854.253 409.94C851.784 411.156 851.722 411.693 853.066 414.295C854.41 416.896 861.465 419.874 864.027 417.852Z" fill="#FFF"/>
<path d="M175.769 564.824C181.8 562.315 184.815 559.805 188.836 550.268C189.171 548.093 190.947 544.848 195.369 549.265C200.897 554.786 199.39 566.331 196.877 570.848C194.364 575.365 193.359 583.396 197.882 584.4C202.362 585.394 202.898 582.45 203.884 577.029L203.913 576.871C204.918 571.35 208.436 571.35 209.441 573.358C210.446 575.365 211.954 582.894 215.472 581.891C218.99 580.887 218.487 577.373 216.477 572.856C214.467 568.338 210.949 561.311 212.959 552.778C214.969 544.245 222.005 548.763 223.513 552.778C225.021 556.793 229.041 561.813 231.554 561.813C234.067 561.813 239.092 562.315 240.6 567.836C242.108 573.357 245.626 580.496 248.641 581.5C251.657 582.504 255.175 583.006 257.687 588.527C260.2 594.048 268.241 604.062 273.267 607.575C278.293 611.089 267.236 611.089 260.703 614.1C254.169 617.112 248.641 615.104 239.595 615.104C230.549 615.104 232.559 606.571 229.544 606.069C226.528 605.567 225.021 610.587 226.528 614.1C228.036 617.614 232.559 620.124 229.041 621.127C225.523 622.131 217.482 614.516 213.462 621.543C209.441 628.57 208.436 620.539 199.39 619.033C190.344 617.528 188.836 616.524 190.344 613.512C191.851 610.5 195.872 603.975 192.354 602.971C188.836 601.968 186.826 605.983 184.313 613.512C181.8 621.041 177.277 620.539 175.769 616.524C174.262 612.508 167.225 619.535 161.697 620.539C156.169 621.543 157.174 612.006 149.133 612.508C141.092 613.01 135.564 610.5 140.087 607.489C144.61 604.477 147.123 599.96 149.636 594.94C152.149 589.921 154.159 583.396 157.677 582.392C161.195 581.388 163.205 580.384 165.718 575.365C168.231 570.346 169.738 567.334 175.769 564.824Z" fill="#FFF"/>
<path d="M204.918 552.778C203.41 552.276 199.892 544.747 197.882 540.732C197.632 540.23 187.328 543.744 186.323 542.238C185.318 540.732 188.333 535.713 188.333 534.207C188.333 532.701 178.785 530.693 178.785 529.187C178.785 527.682 187.831 523.164 189.841 521.659C191.851 520.153 188.836 512.624 189.841 511.62C190.846 510.616 196.877 515.133 197.882 515.133C198.887 515.133 202.908 500.577 204.918 500.577C206.928 500.577 212.959 515.133 214.467 515.133C215.974 515.133 223.513 508.608 224.015 510.114C224.518 511.62 223.513 520.153 224.015 521.659C224.518 523.164 234.569 526.176 234.067 527.18C233.564 528.184 223.513 532.701 222.508 533.203C221.503 533.705 221.503 540.732 221 542.238C220.498 543.744 212.959 539.226 211.451 539.226C209.944 539.226 206.426 553.28 204.918 552.778Z" fill="#FFF"/>
<path fill-rule="evenodd" clip-rule="evenodd" d="M860.288 559.134C856.526 559.134 856.956 543.192 857.286 530.939L857.293 530.669C857.757 513.436 854.453 510.959 852.985 509.858C852.031 509.144 851.852 509.009 853.977 505.795C855.864 502.942 856.878 499.51 857.654 496.884C858.362 494.491 858.871 492.769 859.661 492.769C860.564 492.769 861.352 494.693 862.502 497.502C863.463 499.85 864.677 502.817 866.423 505.795C867.583 507.774 867.923 508.279 867.79 508.496C867.413 509.115 863.214 507.404 863.214 530.669C863.214 542.276 863.13 559.134 860.288 559.134ZM850.049 615.62C852.203 626.734 862.601 640.014 868.285 639.303C871.927 640.032 871.089 638.341 869.353 634.839C868.267 632.646 866.829 629.743 865.917 626.278C863.548 617.278 870.18 607.805 870.416 615.62C870.653 623.436 873.258 625.33 875.153 620.357C875.721 618.867 876.096 617.483 876.394 616.383C877.09 613.814 877.365 612.8 878.692 615.62C882.069 622.797 889.042 599.219 889.363 596.516C890.203 589.436 891.286 590.746 892.735 592.499C894.147 594.206 895.906 596.333 898.126 591.542C900.193 587.081 902.061 585.619 903.705 584.332C905.64 582.817 907.266 581.544 908.547 575.911C910.553 567.084 900.493 559.276 895.642 555.511C894.766 554.832 894.061 554.284 893.626 553.886C892.562 552.91 892.494 551.47 892.44 550.323C892.349 548.407 892.298 547.311 887.705 550.57C880.363 555.78 877.35 546.919 879.179 542.804C881.074 538.541 882.021 533.588 879.179 527.904C876.337 522.22 868.409 513.961 870.327 521.769C872.363 530.061 871.03 533.958 869.973 537.048C869.309 538.989 868.754 540.611 869.211 542.804C870.396 548.488 872.074 562.175 860.943 564.069C854.461 565.173 853.36 561.393 852.262 557.622C851.474 554.917 850.687 552.217 847.917 551.327C844.052 550.084 844.659 548.679 846.307 544.862L846.307 544.862C847.486 542.13 849.199 538.163 850.186 532.136C852.555 517.69 848.478 513.786 846.346 520.654C845.468 523.482 843.571 524.237 841.346 525.121C838.168 526.385 834.32 527.915 831.813 536.133C829.697 543.067 826.299 544.05 823.557 544.843C820.772 545.649 818.664 546.259 819.261 552.701C819.919 559.807 816.19 564.646 812.706 569.169C809.919 572.786 807.288 576.201 807.182 580.411C806.945 589.884 819.024 603.621 819.261 601.252C819.498 598.884 827.391 591.228 828.26 601.252C828.724 606.598 830.427 607.953 833.527 610.42C835.757 612.194 838.709 614.543 842.442 619.365C843.87 621.21 844.788 617.429 845.651 613.877C846.832 609.012 847.909 604.577 850.049 615.62ZM877.621 575.279C867.991 572.31 856.966 571.129 842.459 575.279C831.844 578.316 822.221 583.541 843.786 588.699C848.805 589.899 849.072 587.807 849.406 585.19C849.801 582.099 850.289 578.275 858.808 578.275C868.768 578.275 869.524 582.35 870.08 585.346C870.535 587.796 870.856 589.524 875.962 587.717C887.316 583.698 893.544 580.189 877.621 575.279Z" fill="#FFF"/>
<path d="M361.038 572.341V582.503C361.038 583.056 361.486 583.503 362.038 583.503H396.103C396.874 583.503 397.355 582.667 396.968 582.001L390.573 571.007C390.392 570.695 390.392 570.31 390.575 569.999L407.131 541.756C407.31 541.45 407.639 541.262 407.994 541.262H441.13C441.485 541.262 441.813 541.45 441.993 541.756L458.549 569.999C458.731 570.31 458.732 570.695 458.551 571.007L452.156 582.001C451.768 582.667 452.249 583.503 453.021 583.503H486.077C486.629 583.503 487.077 583.056 487.077 582.503V574.565C487.077 574.073 486.719 573.654 486.233 573.577L478.342 572.331C477.856 572.254 477.498 571.836 477.498 571.343V516.761C477.498 516.132 476.926 515.66 476.309 515.779L455.118 519.855C454.647 519.946 454.307 520.358 454.307 520.837V527.154C454.307 527.706 453.859 528.154 453.307 528.154H396.825C396.273 528.154 395.825 527.706 395.825 527.154V520.847C395.825 520.363 395.479 519.949 395.003 519.863L372.299 515.763C371.686 515.652 371.122 516.123 371.122 516.747V569.106C371.122 569.601 370.759 570.022 370.27 570.095L361.89 571.352C361.401 571.425 361.038 571.846 361.038 572.341Z" fill="#FFF"/>
<path d="M361.038 598.525V589.652C361.038 589.1 361.486 588.652 362.038 588.652H399.278C399.637 588.652 399.968 588.844 400.146 589.156L405.62 598.735C405.798 599.047 406.13 599.239 406.488 599.239H442.154C442.501 599.239 442.822 599.06 443.005 598.766L448.972 589.126C449.154 588.831 449.476 588.652 449.822 588.652H486.077C486.629 588.652 487.077 589.1 487.077 589.652V598.076C487.077 598.476 486.838 598.837 486.471 598.995L468.946 606.502C468.622 606.641 468.395 606.94 468.348 607.289L466.308 622.646C466.242 623.143 465.818 623.515 465.317 623.515H456.914C456.444 623.515 456.038 623.188 455.937 622.729L454.051 614.141C453.95 613.682 453.544 613.356 453.074 613.356H434.335C433.869 613.356 433.465 613.678 433.361 614.133L430.37 627.199C430.266 627.654 429.862 627.976 429.395 627.976H421.259C420.792 627.976 420.388 627.654 420.284 627.199L417.293 614.133C417.189 613.678 416.785 613.356 416.319 613.356H393.314C392.845 613.356 392.438 613.682 392.338 614.141L390.452 622.729C390.351 623.188 389.945 623.515 389.475 623.515H381.8C381.294 623.515 380.868 623.138 380.807 622.636L378.76 605.911C378.713 605.53 378.454 605.21 378.092 605.086L361.714 599.471C361.31 599.332 361.038 598.952 361.038 598.525Z" fill="#FFF"/>
<path d="M452.35 569.614C452.528 569.924 452.528 570.305 452.35 570.614L438.889 593.929C438.71 594.239 438.38 594.429 438.023 594.429L411.101 594.429C410.743 594.429 410.413 594.239 410.235 593.929L396.774 570.614C396.595 570.305 396.595 569.924 396.774 569.614L410.235 546.299C410.413 545.99 410.743 545.799 411.101 545.799L438.023 545.799C438.38 545.799 438.71 545.99 438.889 546.299L452.35 569.614Z" fill="#FFF"/>
<path fill-rule="evenodd" clip-rule="evenodd" d="M596.782 619.059L593.027 599.417C592.937 598.946 592.525 598.605 592.045 598.605H589.381C588.87 598.605 588.442 598.22 588.387 597.712L583.979 556.565C583.894 555.773 584.724 555.204 585.432 555.57L591.135 558.52C591.859 558.895 592.704 558.291 592.583 557.484L589.908 539.562C589.818 538.957 590.286 538.414 590.897 538.414H609.983C610.431 538.414 610.825 538.713 610.946 539.144L612.731 545.521C612.852 545.953 613.246 546.251 613.694 546.251H619.146C619.698 546.251 620.146 545.804 620.146 545.251V533.195C620.146 532.924 620.036 532.665 619.841 532.476L602.485 515.68C601.839 515.055 602.282 513.961 603.181 513.961H616.722C617.093 513.961 617.433 514.166 617.606 514.494L619.864 518.759C620.038 519.086 620.378 519.291 620.748 519.291H624.162C624.714 519.291 625.162 518.843 625.162 518.291V514.961C625.162 514.409 625.61 513.961 626.162 513.961H633.786C634.245 513.961 634.645 514.274 634.756 514.719L635.318 516.966C635.429 517.411 635.829 517.723 636.288 517.723H642.972C643.524 517.723 643.972 517.276 643.972 516.723V514.961C643.972 514.409 644.419 513.961 644.972 513.961H653.003C653.556 513.961 654.003 514.409 654.003 514.961V516.723C654.003 517.276 654.451 517.723 655.003 517.723H661.266C661.622 517.723 661.951 517.534 662.13 517.227L663.746 514.458C663.925 514.15 664.254 513.961 664.61 513.961H678.433C679.294 513.961 679.753 514.978 679.182 515.623L664.286 532.488C664.124 532.67 664.035 532.906 664.035 533.15V545.251C664.035 545.804 664.483 546.251 665.035 546.251H668.678C669.231 546.251 669.678 545.804 669.678 545.251V539.414C669.678 538.862 670.126 538.414 670.678 538.414H689.107C689.639 538.414 690.077 538.83 690.105 539.362L690.87 553.897C690.917 554.783 692.009 555.174 692.607 554.518L695.717 551.112C696.348 550.422 697.497 550.897 697.455 551.832L695.428 596.71C695.404 597.244 694.964 597.665 694.429 597.665H691.902C691.388 597.665 690.957 598.055 690.907 598.567L688.894 618.987C688.842 619.513 688.39 619.908 687.862 619.888L672.654 619.325C672.195 619.308 671.807 618.98 671.712 618.53L669.218 606.611C669.121 606.148 668.712 605.816 668.239 605.816H662.168C661.956 605.816 661.748 605.883 661.577 606.009L657.402 609.071C657.231 609.196 657.024 609.264 656.811 609.264H629.025C628.759 609.264 628.505 609.159 628.317 608.971L625.488 606.142C625.281 605.935 624.994 605.829 624.702 605.852L618.245 606.369C617.725 606.411 617.324 606.844 617.324 607.366V617.729C617.324 618.257 616.913 618.694 616.386 618.727L597.826 619.869C597.323 619.9 596.876 619.553 596.782 619.059ZM645.853 534.025L630.178 532.771V545.938L639.583 549.073L654.63 545.938V532.771L645.853 534.025ZM609.03 576.556C608.806 576.051 609.065 575.567 609.609 575.475L615.21 574.525C615.8 574.425 616.469 574.823 616.643 575.377L621.702 591.492C621.839 591.928 621.622 592.324 621.18 592.446L617.693 593.403C617.136 593.556 616.444 593.219 616.203 592.678L609.03 576.556ZM627.711 572.686C627.138 572.747 626.814 573.264 627.005 573.814L632.71 590.333C632.956 591.044 633.879 591.376 634.418 590.948L637.879 588.202C638.126 588.005 638.229 587.686 638.151 587.356L634.753 572.968C634.624 572.419 634.045 572.012 633.48 572.072L627.711 572.686ZM647.784 573.035C647.841 572.458 648.39 571.998 648.974 572.039L654.819 572.45C655.37 572.488 655.735 572.96 655.635 573.503L652.618 589.884C652.501 590.515 651.822 590.941 651.223 590.758L646.867 589.426C646.46 589.302 646.212 588.925 646.255 588.495L647.784 573.035ZM666.141 573.808C665.559 573.728 664.932 574.14 664.787 574.698L660.55 590.959C660.428 591.426 660.688 591.842 661.163 591.939L665.256 592.784C665.815 592.899 666.456 592.534 666.651 591.989L672.509 575.666C672.695 575.146 672.403 574.664 671.855 574.589L666.141 573.808Z" fill="#FFF"/>
</svg>
