<svg width="630" height="512" viewBox="0 0 630 512" fill="none" xmlns="http://www.w3.org/2000/svg">
<g clip-path="url(#clip0_2010_22230)">
<rect y="-286" width="630" height="886" fill="black"/>
<rect y="-285.657" width="630" height="905.948" fill="black"/>
<g opacity="0.1" filter="url(#filter0_f_2010_22230)">
<rect x="14.2051" y="-120.51" width="615.085" height="576.731" rx="69" fill="white"/>
</g>
<path d="M116.709 610.128L101.21 618.409C100.292 618.899 100.641 620.291 101.681 620.291H630.315C630.867 620.291 631.315 619.843 631.315 619.291V-79.0683C631.315 -79.8283 630.5 -80.3105 629.834 -79.9453L621.54 -75.4004C620.874 -75.0352 620.06 -75.5175 620.06 -76.2774V-96.6423C620.06 -97.282 619.468 -97.7572 618.843 -97.6185L611.548 -95.998C611.109 -95.9005 610.789 -95.5219 610.766 -95.0728L609.134 -63.0867C609.109 -62.6044 608.743 -62.2085 608.265 -62.1461L602.264 -61.3637C601.692 -61.2891 601.175 -61.713 601.137 -62.2888L600.242 -75.7115C600.207 -76.2368 599.77 -76.6449 599.244 -76.6449H593.579C593.051 -76.6449 592.613 -76.2339 592.581 -75.7066L590.953 -49.3521C590.935 -49.0595 590.79 -48.7895 590.555 -48.6136L588.549 -47.1097C588.317 -46.9353 588.171 -46.6682 588.152 -46.378L586.529 -22.697C586.495 -22.1964 586.095 -21.7986 585.594 -21.7673L565.47 -20.51C564.943 -20.4771 564.532 -20.0401 564.532 -19.512V-12.8416C564.532 -12.3067 564.111 -11.8666 563.577 -11.8426L519.466 -9.86821C518.97 -9.846 518.565 -9.46297 518.516 -8.96875L517.674 -0.550941C517.618 0.000808716 518.023 0.492119 518.575 0.544182L534.926 2.08621C535.4 2.13087 535.776 2.50295 535.826 2.97597L537.384 17.6116C537.426 18.0093 537.228 18.394 536.879 18.5897L524.429 25.5713C523.89 25.8733 523.209 25.62 522.999 25.0394L517.8 10.6694C517.663 10.2904 517.311 10.0308 516.909 10.0109L483.483 8.35673C483.153 8.34035 482.851 8.16107 482.679 7.87804L478.438 0.9133C478.262 0.624191 477.952 0.443756 477.613 0.433807L443.591 -0.566505C443.336 -0.573997 443.093 -0.678566 442.913 -0.858841L434.53 -9.23929C434.188 -9.58105 434.139 -10.1185 434.414 -10.5159L436.357 -13.3201C436.707 -13.8259 436.522 -14.5249 435.967 -14.7911L429.286 -17.9966C428.817 -18.222 428.253 -18.049 427.99 -17.5991L426.397 -14.8694C426.191 -14.5158 425.79 -14.3237 425.385 -14.3844L420.052 -15.1841C419.562 -15.2575 419.2 -15.678 419.2 -16.1731V-19.4515C419.2 -20.0038 418.753 -20.4515 418.2 -20.4515H411.947C411.286 -20.4515 410.806 -19.821 410.983 -19.1837L412.131 -15.0536C412.256 -14.6034 412.053 -14.1267 411.642 -13.9053L408.598 -12.267C408.184 -12.0442 407.671 -12.1398 407.365 -12.4966L404.366 -15.9944C404.031 -16.3848 403.455 -16.4577 403.033 -16.1628L397.733 -12.4541C397.283 -12.1393 397.172 -11.5205 397.483 -11.0681L400.384 -6.84959C400.576 -6.57107 400.613 -6.21462 400.485 -5.90206L398.547 -1.1973C398.392 -0.822662 398.027 -0.578171 397.622 -0.578171H393.465C392.912 -0.578171 392.465 -0.130455 392.465 0.421829V7.33054C392.465 7.88283 392.912 8.33054 393.465 8.33054H397.292C397.844 8.33054 398.292 8.77826 398.292 9.33054V14.2226C398.292 14.6014 398.078 14.9478 397.739 15.1171L383.16 22.4038C382.78 22.5941 382.561 23.0043 382.615 23.4263L383.75 32.2155C383.827 32.8136 383.361 33.3435 382.758 33.3435H377.615C377.096 33.3435 376.663 32.9462 376.619 32.4289L375.76 22.4106C375.711 21.8362 375.187 21.4223 374.617 21.5068L357.935 23.9773C357.48 24.0447 357.037 23.7928 356.863 23.3669L354.346 17.215C354.184 16.8196 353.789 16.5706 353.362 16.5954L325.655 18.2057C325.081 18.2391 324.597 17.7825 324.597 17.2074V9.2065C324.597 8.70511 324.226 8.28123 323.729 8.21521L276.32 1.91828C275.882 1.86015 275.458 2.096 275.276 2.49856L265.025 25.2356C264.798 25.7394 265.023 26.3319 265.527 26.5586L270.575 28.8296C271.072 29.053 271.656 28.8379 271.889 28.3458L274.181 23.5094C274.395 23.0579 274.909 22.8336 275.385 22.984L279.967 24.4303C280.547 24.6135 280.831 25.2682 280.567 25.8168L277.345 32.5271C277.123 32.9905 277.288 33.547 277.727 33.8142L283.909 37.5757C284.408 37.8798 285.061 37.6919 285.323 37.1688L287.817 32.1817C288.064 31.6879 288.665 31.4877 289.159 31.7346L294.911 34.6095C295.405 34.8565 295.605 35.4573 295.358 35.9513L292.463 41.7383C292.224 42.2172 292.404 42.7999 292.872 43.0598L303.819 49.1393C304.158 49.3275 304.358 49.6947 304.331 50.0815L302.355 79.0495C302.332 79.3923 302.134 79.6991 301.832 79.862L280.86 91.1502C280.397 91.3994 280.206 91.9645 280.423 92.4434L287.907 108.965C288.112 109.417 288.618 109.651 289.096 109.513L336.214 95.9131C336.642 95.7896 336.937 95.3978 336.937 94.9523V86.2852C336.937 85.7907 337.298 85.3705 337.787 85.2964L347.427 83.8364C347.903 83.7643 348.363 84.0417 348.521 84.4965L350.713 90.7964C350.873 91.2565 351.341 91.5343 351.822 91.4542L358.215 90.389C358.766 90.2973 359.135 89.7728 359.035 89.2237L357.988 83.4683C357.905 83.0095 358.15 82.5538 358.578 82.3702L364.081 80.0126C364.605 79.788 365.211 80.0466 365.411 80.5806L367.806 86.9647C367.988 87.4506 368.512 87.7163 369.012 87.5764L375.729 85.6962C376.263 85.5468 376.574 84.9915 376.421 84.4584L374.936 79.2608C374.776 78.7034 375.123 78.1277 375.69 78.0077L403.136 72.1977C403.525 72.1154 403.925 72.2712 404.156 72.5946L410.181 81.0264C410.446 81.3972 410.928 81.5419 411.354 81.3784L427.695 75.0954C428.138 74.9253 428.639 75.0892 428.895 75.4879L431.022 78.7959C431.312 79.2459 431.196 79.8438 430.759 80.1529L424.133 84.8448C423.681 85.165 423.575 85.7916 423.897 86.2423L428.06 92.0681C428.298 92.4017 428.716 92.556 429.114 92.4573L508.665 72.741C509.579 72.5143 510.271 73.5623 509.704 74.3141L498.214 89.5326C497.915 89.9286 497.952 90.4841 498.3 90.8374L521.592 114.449C521.86 114.721 522.259 114.816 522.62 114.696L529.391 112.439C529.881 112.276 530.415 112.513 530.623 112.985L533.717 120.015C533.899 120.43 534.337 120.67 534.784 120.601L546.944 118.731C547.23 118.687 547.521 118.769 547.742 118.955L566.86 135.101C567.118 135.319 567.47 135.392 567.794 135.294L602.914 124.696C603.328 124.571 603.775 124.726 604.022 125.079L605.269 126.86C605.643 127.394 605.415 128.138 604.805 128.369L560.135 145.318C559.563 145.535 559.318 146.211 559.619 146.744L572.086 168.865C572.419 169.455 572.081 170.198 571.418 170.335L564.14 171.841C563.482 171.977 563.143 172.709 563.465 173.299L568.385 182.316C568.693 182.881 568.395 183.586 567.775 183.758L557.847 186.515C557.231 186.686 556.932 187.382 557.231 187.946L562.115 197.17C562.449 197.801 562.033 198.569 561.322 198.633L552.55 199.431C551.982 199.482 551.572 199.998 551.65 200.563L552.738 208.448C552.815 209.004 552.419 209.514 551.861 209.578L526.913 212.419C526.32 212.487 525.8 212.023 525.8 211.425V204.439C525.8 203.971 525.474 203.565 525.017 203.463L517.321 201.754C516.867 201.653 516.403 201.878 516.202 202.298L513.156 208.666C512.938 209.121 512.416 209.342 511.937 209.183L506.556 207.39C506.02 207.211 505.738 206.625 505.934 206.095L507.711 201.274C507.867 200.849 507.719 200.372 507.349 200.111L502.948 197.005C502.504 196.692 501.891 196.79 501.568 197.227L477.554 229.667C477.164 230.193 476.383 230.209 475.972 229.7L471.364 223.998C470.772 223.264 469.587 223.683 469.587 224.626V252.873C469.587 253.336 469.269 253.739 468.818 253.846L463.447 255.124C462.878 255.26 462.314 254.879 462.227 254.3L461.509 249.518C461.427 248.97 460.914 248.593 460.366 248.679L451.237 250.104C450.751 250.18 450.392 250.6 450.392 251.092V275.7C450.392 276.22 449.993 276.653 449.475 276.696L438.961 277.572C438.446 277.615 437.983 277.258 437.894 276.75L437.182 272.716C437.092 272.209 436.633 271.853 436.12 271.893L424.631 272.776C424.089 272.818 423.613 272.419 423.559 271.879L422.712 263.41C422.663 262.925 422.273 262.546 421.788 262.512L394.076 260.533C393.918 260.522 393.765 260.473 393.629 260.391L383.744 254.402C383.151 254.042 382.381 254.381 382.245 255.061L381.314 259.712C381.221 260.179 380.81 260.516 380.334 260.516H373.305C372.875 260.516 372.493 260.24 372.356 259.832L369.659 251.743C369.426 251.045 368.544 250.829 368.015 251.341L358.854 260.204C358.648 260.402 358.368 260.504 358.083 260.482L341.416 259.225C340.845 259.181 340.426 258.668 340.5 258.099L341.613 249.469C341.682 248.94 341.322 248.45 340.796 248.357L294.337 240.122C293.815 240.03 293.311 240.361 293.189 240.878L292.244 244.894C292.126 245.397 291.643 245.727 291.131 245.655L234.726 237.694C234.191 237.619 233.813 237.131 233.872 236.594L234.59 230.134C234.678 229.346 233.858 228.775 233.149 229.129L224.881 233.262C224.328 233.538 223.659 233.252 223.478 232.662L220.249 222.171C220.016 221.416 219.042 221.216 218.531 221.818L210.614 231.145C210.32 231.492 209.828 231.596 209.418 231.399L202.481 228.06C201.774 227.72 200.969 228.289 201.053 229.068L202.158 239.284C202.202 239.691 201.994 240.083 201.633 240.275L192.925 244.899C192.217 245.275 192.217 246.289 192.925 246.665L201.489 251.213C201.918 251.441 202.121 251.944 201.971 252.406L198.442 263.262C198.178 264.071 198.983 264.819 199.771 264.496L211.882 259.544C212.412 259.327 213.015 259.599 213.204 260.139L216.958 270.86C217.237 271.656 218.315 271.771 218.755 271.052L224.903 260.994C225.085 260.697 225.408 260.516 225.757 260.516H237.436C238.036 260.516 238.501 261.04 238.429 261.635L236.614 276.76C236.553 277.266 236.882 277.736 237.378 277.853L241.413 278.802C241.93 278.923 242.262 279.427 242.169 279.95L237.765 304.791C237.65 305.442 238.188 306.024 238.846 305.961L247.412 305.132C247.855 305.089 248.217 304.757 248.298 304.319L255.882 263.45C255.975 262.949 256.428 262.599 256.935 262.634L308.586 266.275C309.11 266.312 309.516 266.748 309.516 267.273V275.62C309.516 276.172 309.964 276.62 310.516 276.62H336.899C337.477 276.62 337.934 277.108 337.897 277.684L336.999 291.753C336.964 292.293 337.367 292.763 337.906 292.812L370.539 295.778C370.754 295.797 370.957 295.886 371.118 296.03L380.529 304.498C380.89 304.823 380.966 305.36 380.708 305.771L375.092 314.754C374.714 315.358 375.073 316.153 375.776 316.27L397.915 319.959C398.488 320.054 399.022 319.642 399.075 319.063L400.593 302.369C400.646 301.788 401.183 301.375 401.758 301.474L421.654 304.892C422.193 304.985 422.558 305.495 422.472 306.036L421.402 312.72C421.32 313.232 421.643 313.722 422.147 313.848L430.353 315.899C430.668 315.977 431 315.899 431.246 315.688L435.134 312.357C435.447 312.089 435.892 312.04 436.255 312.234L444.84 316.81C445.403 317.111 445.545 317.854 445.131 318.341L440.598 323.673C440.308 324.013 440.28 324.504 440.527 324.875L443.223 328.918C443.418 329.209 443.75 329.377 444.1 329.362L451.171 329.043C451.536 329.027 451.881 329.211 452.07 329.523L456.768 337.258C457.15 337.886 456.747 338.697 456.016 338.772L448.205 339.574C447.695 339.627 447.307 340.056 447.307 340.569V349.63C447.307 350.03 447.545 350.391 447.911 350.549L456.566 354.274C457.113 354.509 457.334 355.167 457.041 355.685L452.153 364.332C451.924 364.736 451.448 364.93 451.002 364.8L444.227 362.825C443.814 362.704 443.371 362.861 443.126 363.213L438.416 369.982C438.194 370.301 438.176 370.719 438.371 371.055L441.298 376.109C441.584 376.602 441.4 377.234 440.894 377.497L434.116 381.02C433.636 381.27 433.044 381.092 432.781 380.619L430.224 376.018C429.993 375.601 429.499 375.406 429.045 375.551L422.286 377.713C421.731 377.891 421.445 378.503 421.665 379.043L424.604 386.256C424.83 386.809 424.523 387.435 423.948 387.596L361.045 405.242C360.091 405.509 360.065 406.853 361.009 407.156L396.897 418.699C397.133 418.775 397.332 418.935 397.456 419.149L406.564 434.846C406.889 435.407 406.602 436.125 405.98 436.308L388.66 441.382C388.004 441.575 387.73 442.355 388.122 442.915L394.16 451.537C394.381 451.852 394.763 452.013 395.143 451.95L410.323 449.421C410.718 449.355 411.114 449.531 411.33 449.868L415.972 457.119C416.248 457.55 416.806 457.703 417.264 457.473L466.294 432.8C466.631 432.63 466.844 432.284 466.844 431.906V423.579C466.844 423.183 467.077 422.825 467.438 422.665L472.217 420.542C472.674 420.339 473.21 420.504 473.473 420.929L476.996 426.617C477.265 427.052 477.82 427.214 478.281 426.991L518.356 407.617C518.865 407.371 519.069 406.752 518.805 406.251L516.242 401.382C516.02 400.96 516.126 400.441 516.496 400.14L520.557 396.842C520.99 396.49 521.627 396.56 521.972 396.998L525.996 402.093C526.283 402.457 526.782 402.575 527.201 402.381L539.555 396.658C540.085 396.413 540.293 395.767 540.005 395.259L532.027 381.149C531.794 380.737 531.882 380.217 532.238 379.905L534.943 377.534C535.29 377.229 535.384 376.726 535.169 376.317L518.019 343.687C517.951 343.558 517.856 343.446 517.741 343.357L486.489 319.501C486.195 319.276 486.049 318.907 486.109 318.542L492.459 280.262C492.517 279.916 492.751 279.625 493.078 279.496L531.063 264.469C531.395 264.338 531.771 264.393 532.051 264.614L563.74 289.628C564.018 289.848 564.159 290.199 564.111 290.55L558.808 328.851C558.761 329.185 558.549 329.474 558.244 329.618L537.846 339.246C537.352 339.479 537.137 340.065 537.361 340.563L564.161 399.827C564.363 400.273 564.212 400.8 563.805 401.072L531.778 422.425C531.367 422.699 530.819 422.632 530.486 422.269L527.74 419.274C527.47 418.98 527.05 418.874 526.673 419.006L521.698 420.747C521.069 420.967 520.827 421.73 521.214 422.272L523.148 424.979C523.518 425.496 523.317 426.223 522.733 426.477L516.779 429.065C516.322 429.263 515.79 429.096 515.529 428.672L513.746 425.776C513.464 425.319 512.871 425.166 512.403 425.43L506.207 428.93C505.735 429.198 505.562 429.793 505.817 430.272L507.637 433.683C507.894 434.164 507.717 434.763 507.24 435.028L502.724 437.535C502.274 437.786 501.707 437.653 501.415 437.228L498.653 433.211C498.37 432.8 497.828 432.66 497.382 432.883L492.304 435.421C491.771 435.688 491.588 436.359 491.912 436.859L494.489 440.841C494.805 441.329 494.639 441.983 494.128 442.262L488.423 445.373C487.934 445.64 487.321 445.455 487.06 444.963L484.895 440.875C484.645 440.403 484.069 440.211 483.587 440.437L406.992 476.37C406.583 476.562 406.096 476.456 405.804 476.111L402.934 472.72C402.686 472.427 402.292 472.302 401.921 472.398L382.074 477.514C381.558 477.647 381.029 477.353 380.87 476.844L379.652 472.947C379.525 472.541 379.155 472.26 378.729 472.246L337.969 470.932C337.405 470.914 336.937 471.366 336.937 471.931V475.603C336.937 476.2 336.417 476.664 335.824 476.597L310.458 473.708C310.09 473.666 309.774 473.423 309.64 473.077L307.707 468.11C307.558 467.725 307.188 467.472 306.775 467.472H302.632C302.08 467.472 301.632 467.92 301.632 468.472V472.64C301.632 473.192 301.185 473.64 300.632 473.64H296.526C296.096 473.64 295.713 473.364 295.577 472.956L293.977 468.156C293.841 467.748 293.458 467.472 293.028 467.472H288.769C288.28 467.472 287.863 467.826 287.782 468.308L287.033 472.804C286.952 473.286 286.535 473.64 286.046 473.64H242.991C242.439 473.64 241.991 474.088 241.991 474.64V479.296C241.991 479.788 242.349 480.207 242.835 480.284L262.742 483.443C263.228 483.52 263.585 483.939 263.585 484.43V488.479C263.585 489 263.186 489.434 262.666 489.476L251.822 490.355C251.303 490.397 250.903 490.831 250.903 491.352V497.028C250.903 497.556 251.314 497.993 251.841 498.026L271.902 499.279C272.429 499.312 272.84 499.749 272.84 500.277V505.988C272.84 506.495 273.219 506.921 273.722 506.981L300.75 510.198C301.253 510.258 301.632 510.684 301.632 511.191V516.88C301.632 517.417 302.056 517.858 302.592 517.88L351.402 519.858C351.938 519.879 352.361 520.32 352.361 520.857V525.526C352.361 526.029 351.987 526.454 351.488 526.518L335.215 528.588C334.454 528.685 334.081 529.567 334.541 530.18L338.336 535.239C338.533 535.502 338.846 535.651 339.174 535.638L373.806 534.307C374.116 534.295 374.415 534.428 374.613 534.666L396.586 561.088C397.127 561.739 396.664 562.727 395.817 562.727H380.239C379.772 562.727 379.367 562.403 379.264 561.947L377.211 552.862C377.111 552.417 376.721 552.096 376.264 552.083L341.736 551.106C341.172 551.09 340.707 551.542 340.707 552.106V565.288C340.707 565.915 340.137 566.388 339.521 566.271L261.181 551.401C260.423 551.258 259.794 551.99 260.051 552.717L263.38 562.145C263.506 562.502 263.42 562.899 263.158 563.172L255.532 571.099C255.226 571.418 254.747 571.497 254.354 571.295L245.039 566.506C244.266 566.109 243.388 566.82 243.617 567.659L246.941 579.842C247.055 580.261 246.887 580.705 246.524 580.943L239.01 585.854C238.567 586.143 237.975 586.037 237.66 585.612L232.498 578.646C232.019 577.999 231.01 578.155 230.749 578.917L227.492 588.414C227.349 588.828 226.954 589.102 226.516 589.089L193.663 588.113C193.099 588.096 192.633 588.549 192.633 589.113V593.935C192.633 594.488 192.186 594.935 191.633 594.935H168.153C167.648 594.935 167.223 594.559 167.161 594.057L164.977 576.283C164.916 575.781 164.49 575.405 163.985 575.405H154.337C153.739 575.405 153.275 575.925 153.343 576.519L155.521 595.488C155.576 595.963 155.286 596.411 154.831 596.555L148.908 598.439C148.43 598.591 147.914 598.366 147.7 597.914L142.606 587.13C142.399 586.69 141.905 586.464 141.436 586.593L133.338 588.826C132.78 588.98 132.469 589.574 132.661 590.121L136.77 601.858C136.955 602.385 136.672 602.961 136.142 603.137L125.463 606.696C125.048 606.834 124.592 606.687 124.336 606.333L120.74 601.356C120.484 601.001 120.028 600.854 119.613 600.992L115.235 602.452C114.657 602.644 114.384 603.303 114.656 603.848L117.133 608.798C117.375 609.283 117.187 609.872 116.709 610.128Z" fill="#D87A22"/>
<path fill-rule="evenodd" clip-rule="evenodd" d="M30.6744 601.922C35.7482 598.203 40.2879 594.875 41.4744 589.453C43.8738 578.488 46.9586 575.405 57.9271 579.516C59.1917 579.99 60.4655 580.492 61.7473 580.996C71.5829 584.868 81.8932 588.927 92.2035 582.258C101.904 575.983 103.53 576.356 106.57 577.052C107.182 577.192 107.852 577.346 108.656 577.461C113.455 578.146 112.427 573.349 111.055 569.58C110.46 567.943 112.45 568.245 115.566 568.718C119.626 569.333 125.596 570.238 130.25 567.524C134.251 565.192 132.334 561.562 130.294 557.701C128.14 553.621 125.848 549.282 130.25 545.938C135.758 541.754 137.725 542.665 142.25 544.76C144.766 545.924 148.072 547.455 153.215 548.679C167.612 552.105 172.067 555.189 174.124 558.273C176.181 561.357 179.266 561.357 189.548 560.671C199.831 559.986 212.171 560.329 219.712 561.699C223.354 562.361 223.958 559.825 224.651 556.91C225.393 553.791 226.239 550.238 231.023 549.707C237.126 549.029 238.459 547.308 239.839 545.526C240.551 544.607 241.276 543.671 242.677 542.854C246.79 540.455 266.67 529.833 284.494 538.057C302.318 546.28 311.572 547.651 319.113 544.567C326.654 541.483 321.17 538.057 315.343 539.77C309.516 541.483 299.576 539.085 292.72 532.917C285.865 526.75 270.441 523.666 258.444 523.323C246.447 522.981 233.422 520.582 231.023 509.275C228.87 499.128 223.404 500.846 219.58 502.048C219.143 502.186 218.727 502.317 218.341 502.422C217.676 502.603 216.873 502.912 215.991 503.251C211.872 504.836 206.042 507.079 204.63 500.023C203.223 492.99 199.043 491.962 191.522 490.113C189.882 489.71 188.084 489.268 186.121 488.716C183.893 488.09 180.731 487.293 177.044 486.365C162.581 482.723 140.03 477.045 134.021 471.584C128.853 466.888 128.032 464.605 127.364 462.751C127.058 461.9 126.784 461.139 126.137 460.277C125.199 459.026 126.686 457.919 128.418 456.628C130.483 455.09 132.896 453.292 131.964 450.683C130.25 445.886 136.077 444.858 141.219 448.97C146.36 453.081 149.445 449.312 144.646 443.144C139.848 436.977 133.335 427.04 139.505 423.956C142.618 422.4 143.637 424.857 145.115 428.421C146.566 431.921 148.461 436.489 153.215 439.375C157.704 442.099 159.043 447.671 160.495 453.707C162.148 460.578 163.945 468.052 170.696 472.612C183.379 481.178 198.803 481.178 204.63 475.01C210.457 468.843 218.341 464.388 223.825 464.046C229.309 463.703 228.966 460.277 224.853 458.906C221.986 457.951 216.789 459.825 211.465 461.745C209.15 462.579 206.811 463.423 204.63 464.046C197.432 466.102 192.291 459.249 202.231 454.109C207.202 451.539 208.058 450.254 209.258 449.612C210.458 448.97 212.001 448.97 218.341 448.97C231.023 448.97 229.309 444.858 223.825 442.117C218.341 439.375 212.514 435.264 220.054 433.551C227.595 431.837 235.822 437.32 241.991 442.117C248.161 446.914 253.302 446.914 255.702 444.172C258.101 441.431 262.557 436.634 274.554 436.634C286.551 436.634 292.378 436.977 296.834 441.089C301.289 445.2 303.689 445.2 307.459 443.144C311.23 441.089 317.057 441.088 321.855 443.144C322.471 443.408 323.126 443.7 323.811 444.005C328.472 446.083 334.555 448.794 339.336 447.599C341.603 447.033 341.703 445.822 341.815 444.477C341.974 442.566 342.155 440.381 348.591 439.375C355.095 438.36 356.296 436.862 357.482 435.382C358.297 434.367 359.105 433.359 361.616 432.523C367.786 430.467 368.128 427.726 360.588 426.012C358.902 425.629 356.873 425.332 354.697 425.013C347.14 423.905 337.808 422.537 334.88 416.418C332.779 412.025 327.908 410.72 322.82 409.357C318.781 408.274 314.606 407.155 311.572 404.426C309.855 402.881 308.525 401.766 307.495 400.903C304.417 398.322 304.032 397.999 304.032 395.174C304.032 393.574 306.256 391.603 308.632 389.498C311.853 386.644 315.352 383.544 313.972 380.784C312.77 378.38 308.298 376.493 304.437 374.863C300.591 373.24 297.35 371.872 298.547 370.504C300.947 367.763 307.116 367.763 317.399 374.273C327.682 380.784 335.223 381.126 344.135 376.672C347.237 375.121 349.217 373.612 350.669 372.506C353.389 370.434 354.255 369.775 357.16 372.902C361.616 377.699 362.987 375.644 364.015 370.504L364.052 370.319C365.053 365.307 365.519 362.974 376.355 363.651C387.323 364.336 392.465 362.28 392.807 353.372C393.084 346.172 394.257 345.238 395.963 343.879C396.368 343.557 396.803 343.21 397.263 342.75C399.663 340.351 401.376 334.526 392.807 334.869C384.238 335.211 370.528 334.184 369.157 329.044C368.418 326.274 367.579 326.689 366.266 327.338C365.142 327.894 363.671 328.621 361.616 327.674C360.089 326.969 359.367 325.62 358.581 324.152C357.073 321.336 355.33 318.079 347.22 318.079C339.857 318.079 337.375 313.688 334.387 308.398C332.367 304.823 330.116 300.837 325.968 297.521C320.411 293.076 312.249 292.435 304.299 291.811C297.54 291.28 290.933 290.761 286.208 287.927C275.925 281.759 260.843 281.417 266.328 292.381C268.945 297.615 272.031 300.741 274.729 303.473C277.683 306.464 280.171 308.984 281.066 313.282C281.828 316.937 284.35 319.576 286.706 322.043C289.652 325.126 292.34 327.94 291.007 332.128C289.9 335.604 287.7 337.914 285.651 340.067C283.256 342.582 281.066 344.882 281.066 348.575C281.066 353.226 279.803 354.089 277.813 355.449C276.871 356.093 275.765 356.848 274.554 358.169C270.783 362.28 265.642 363.651 255.702 363.651C246.184 363.651 246.722 366.793 247.387 370.669C247.417 370.841 247.446 371.015 247.476 371.189C248.161 375.301 245.419 378.728 235.136 380.784C224.853 382.839 216.97 382.497 227.595 374.273C232.397 370.557 235.799 369.639 238.086 369.023C240.859 368.276 241.991 367.97 241.991 363.651C241.991 358.721 244.004 358.35 246.769 357.841C248.424 357.536 250.349 357.181 252.274 355.77C257.416 352.001 269.07 340.009 270.098 329.044C271.126 318.079 262.557 314.31 259.815 318.079C258.51 319.873 257.205 320.813 255.753 321.859C254.153 323.012 252.374 324.294 250.218 326.988C246.104 332.128 243.362 331.443 236.85 327.674C230.337 323.904 230.337 331.785 230.68 337.267C230.742 338.264 230.861 339.317 230.981 340.379C231.521 345.162 232.083 350.132 227.595 350.973C226.827 351.117 226.086 351.308 225.36 351.495C220.899 352.645 216.99 353.652 210.8 342.75C210.181 341.661 209.589 340.627 209.023 339.642C203.007 329.159 200.126 324.138 203.259 315.681C204.331 312.786 205.907 310.663 207.167 308.966C209.935 305.237 211.181 303.558 202.231 300.262C192.487 296.674 191.567 294.619 189.856 290.799C189.28 289.513 188.614 288.026 187.492 286.214C183.036 279.018 180.979 281.074 178.237 286.214C178.096 286.478 177.957 286.743 177.818 287.006C175.265 291.853 172.98 296.193 164.527 290.668C158.39 286.657 158.592 284.596 158.865 281.799C158.988 280.534 159.127 279.119 158.7 277.305C158.212 275.234 156.555 274.419 154.852 273.582C151.766 272.064 148.531 270.474 151.844 261.201C156.986 246.81 161.099 239.614 168.297 235.16C175.495 230.705 182.008 225.566 176.523 222.824C171.039 220.083 170.354 215.629 171.039 209.119C171.162 207.95 171.186 206.791 171.209 205.644C171.316 200.404 171.418 195.395 180.979 190.616C184.568 188.822 187.312 187.061 189.631 185.572C194.842 182.227 197.909 180.258 203.602 182.393C207.314 183.784 208.793 187.968 210.022 191.447C211.517 195.676 212.644 198.864 216.97 194.728C224.853 187.19 228.966 188.56 228.966 192.329C228.966 193.469 228.653 194.484 228.395 195.316C227.802 197.236 227.509 198.186 232.051 197.469C232.61 197.381 233.148 197.287 233.671 197.197C239.241 196.233 243.01 195.58 250.218 204.664C258.101 214.601 259.129 215.629 267.699 217.685C270.919 218.457 275.254 220.634 280.065 223.05C288.054 227.061 297.358 231.733 305.06 231.733C311.411 231.733 311.315 229.373 311.222 227.082C311.134 224.922 311.048 222.824 316.371 222.824C327.34 222.824 336.937 228.992 342.078 235.16C347.22 241.327 351.333 244.068 356.474 246.124C358.464 246.92 358.606 245.714 358.787 244.175C359.073 241.738 359.458 238.464 367.443 240.984C374.627 243.252 381.29 243.331 387.605 243.406C392.738 243.466 397.64 243.524 402.405 244.754C411.317 247.837 426.056 250.578 431.197 246.809C435.428 243.708 431.303 243.159 426.271 242.489C425.188 242.344 424.063 242.194 422.971 242.012C416.801 240.984 413.03 233.789 420.571 233.789C423.147 233.789 426.123 234.309 428.556 234.734C433.246 235.553 435.919 236.02 429.826 231.733C420.571 225.223 429.826 220.083 434.282 225.223C436.326 227.581 437.721 230.659 438.963 233.401C440.428 236.635 441.681 239.4 443.536 239.957C446.964 240.984 444.565 225.908 439.423 221.111C434.282 216.314 427.427 208.776 434.282 202.608C441.137 196.441 453.134 200.553 457.933 202.608C462.731 204.664 465.816 205.35 468.215 200.895C469.443 198.617 472.373 198.221 474.944 197.874C477.399 197.542 479.527 197.254 479.527 195.413C479.527 191.644 477.127 188.903 468.215 185.476C459.304 182.05 454.848 177.253 449.706 171.085C447.859 168.869 444.816 167.007 441.962 165.26C436.874 162.146 432.386 159.398 436.338 155.666C442.508 149.841 463.417 151.555 468.215 156.694C469.568 158.143 470.566 159.7 471.487 161.136C473.833 164.796 475.675 167.668 481.583 165.946C489.81 163.547 498.036 165.26 504.206 171.085C510.375 176.911 521.687 187.19 525.457 175.883C528.064 168.066 530.506 167.782 534.371 167.332C536.096 167.131 538.105 166.898 540.539 165.946C548.422 162.862 547.737 153.611 540.539 149.156C538.008 147.59 537.002 146.32 536.196 145.303C534.71 143.426 533.902 142.405 525.457 141.961C512.432 141.276 510.718 137.507 509.347 133.052C508.168 129.222 506.229 128.685 498.079 126.431C496.752 126.064 495.26 125.651 493.58 125.171L493.307 125.093C481.562 121.739 480.144 121.334 471.3 112.494C462.388 103.585 449.363 101.186 441.823 109.41C435.933 115.833 434.016 115.149 430.029 113.725C428.911 113.326 427.631 112.869 426.055 112.494C419.836 111.013 418.99 112.347 416.222 116.716C415.786 117.404 415.303 118.166 414.744 119.004C412.494 122.378 411.68 123.701 410.507 124.488C409.535 125.14 408.317 125.423 405.832 126.199C403.482 126.934 403.398 125.906 403.287 124.545C403.139 122.731 402.943 120.326 397.263 120.717C387.323 121.402 385.267 118.319 392.807 113.864C395.9 112.038 398.3 111.479 400.127 111.053C402.756 110.441 404.198 110.105 404.804 106.669C405.832 100.844 402.062 97.7601 383.553 100.844C374.581 102.339 368.831 105.846 363.491 109.103C357.815 112.565 352.603 115.744 344.478 115.92C336.147 116.101 337.863 118.387 339.566 120.654C341.086 122.677 342.595 124.686 336.937 125.171C324.94 126.199 320.827 130.996 330.424 133.052C340.022 135.108 347.22 142.647 345.849 147.444C344.478 152.241 329.739 154.982 317.399 150.527C311.346 148.342 307.768 149.703 304.438 150.968C300.98 152.283 297.791 153.495 292.378 150.527C290.932 149.735 289.639 148.987 288.458 148.304C280.96 143.967 278 142.255 269.412 148.472C268.204 149.346 267.127 150.155 266.155 150.886C259.126 156.166 257.527 157.367 250.903 149.842C247.508 145.985 247.379 143.725 247.293 142.219C247.188 140.381 247.147 139.665 241.306 138.535C231.003 136.542 238.101 130.361 241.042 127.8C241.134 127.72 241.222 127.643 241.306 127.57C241.433 127.459 241.561 127.348 241.689 127.237C244.32 124.965 246.958 122.686 243.362 113.864C241.401 109.053 242.686 104.983 244.177 100.256C245.553 95.8949 247.105 90.9746 246.447 84.3972C245.873 78.6611 243.979 74.7255 242.346 71.3345C240.078 66.6231 238.316 62.963 241.306 56.9858C243.04 53.519 245.047 50.9876 246.656 48.9578C249.818 44.9691 251.445 42.9173 246.447 39.511C238.906 34.3714 227.938 39.1684 221.425 42.5948C217.744 44.5316 217.677 44.4978 216.395 43.8549C215.41 43.3604 213.706 42.5055 209.086 41.9096C202.659 41.0806 201.373 43.5112 199.768 46.5472C198.719 48.5303 197.534 50.7717 194.69 52.5316C187.492 56.9858 184.064 55.958 180.637 52.5316C177.209 49.1051 182.35 43.9655 186.121 41.2243C189.891 38.4832 181.322 37.1126 176.866 41.2243C176.189 41.8495 175.551 42.4113 174.956 42.935C171.64 45.8558 169.668 47.5923 169.668 52.5316C169.668 58.3565 167.954 62.4682 163.841 61.4403C161.999 60.9799 162.288 59.1446 162.523 57.6587C162.811 55.8272 163.016 54.5265 159.042 56.9858C154.971 59.5056 154.628 61.9158 154.354 63.8441C154.144 65.3246 153.974 66.5211 152.187 67.2652C150.133 68.1209 148.848 66.9251 147.607 65.7698C146.363 64.6121 145.163 63.495 143.275 64.524C142.103 65.163 141.296 66.6295 140.276 68.4812C138.015 72.587 134.711 78.5863 124.081 81.6562C116.757 83.7713 114.61 85.5001 112.762 86.9893C110.717 88.6365 109.036 89.9906 101.115 91.2502C86.0337 93.6487 78.4929 81.9989 93.9173 72.7475C100.094 69.0425 105.227 67.0411 109.095 65.5328C114.885 63.275 117.842 62.1223 117.225 58.0138C116.197 51.1609 123.395 46.7067 131.621 44.6508C139.848 42.5948 142.247 39.8538 140.19 32.6583C139.959 31.8485 139.688 30.9953 139.409 30.1129C137.202 23.1545 134.42 14.3781 145.675 10.7291C151.213 8.93359 151.914 9.81702 153.202 11.4391C154.863 13.5316 157.499 16.8533 172.753 17.2393C187.787 17.6198 195.214 15.043 201.192 12.9686C205.982 11.3067 209.843 9.96722 215.941 10.7291C223.253 11.6426 224.228 9.24283 225.262 6.69998C226.166 4.4747 227.115 2.13989 232.394 1.82007C243.705 1.1348 261.186 -9.48718 266.328 -19.0812C268.56 -23.2462 269.306 -25.9905 269.856 -28.015C270.574 -30.6539 270.959 -32.0698 273.868 -33.8148C274.416 -34.1436 274.984 -34.4995 275.569 -34.8662C280.467 -37.939 286.559 -41.76 292.378 -36.556C295.57 -33.7003 297.939 -35.9503 299.605 -37.5329C301.338 -39.1785 302.311 -40.1026 302.66 -33.8148C303.346 -21.48 305.745 -20.1097 312.943 -28.3329C320.141 -36.556 333.167 -46.8356 348.248 -38.2695C357.893 -32.7915 359.688 -27.1733 360.983 -23.1176C361.714 -20.8313 362.285 -19.0416 364.015 -18.0534C368.814 -15.3122 372.584 -22.8509 373.27 -28.3329C373.591 -30.8991 376.391 -33.6157 379.454 -36.5879C382.934 -39.9648 386.754 -43.6718 387.666 -47.8633C389.38 -55.7441 391.436 -58.1426 398.292 -55.4015C400.392 -54.5616 402.138 -53.368 403.984 -52.1063C408.163 -49.25 412.852 -46.045 423.313 -45.8073C432.858 -45.5905 436.362 -41.2565 439.473 -37.4086C441.278 -35.1765 442.95 -33.108 445.593 -32.1016C452.791 -29.3605 452.791 -34.5001 448.335 -38.9545C447.105 -40.1838 446.189 -41.6742 445.218 -43.2527C442.672 -47.3935 439.752 -52.1407 429.826 -54.3734C416.115 -57.4572 427.084 -72.5334 453.819 -50.947C457.462 -48.0063 460.089 -46.2671 462.161 -44.8951C465.079 -42.9632 466.897 -41.7595 468.901 -38.9545C471.112 -35.8606 472.039 -37.1852 473.614 -39.435C474.482 -40.6734 475.545 -42.1923 477.127 -43.4089C481.583 -46.8353 486.039 -49.9191 492.552 -41.6956C493.956 -39.9223 495.153 -38.2128 496.236 -36.6665C500.174 -31.0425 502.599 -27.5799 507.976 -31.0737C511.626 -33.4451 516.538 -31.932 522.145 -30.205C527.069 -28.6882 532.529 -27.0064 538.139 -27.6473C543.864 -28.3013 548.73 -29.8136 553.483 -31.2906C558.69 -32.9088 563.76 -34.4845 569.674 -34.8428C580.985 -35.5281 573.787 -42.7236 563.504 -41.6956C553.221 -40.6677 548.765 -47.1779 561.79 -47.1779C574.815 -47.1779 569.331 -51.9749 560.419 -53.0029C551.507 -54.0308 544.652 -55.0587 547.737 -62.9395C549.425 -67.2515 552.447 -68.4861 555.904 -69.8987C558.766 -71.0679 561.926 -72.3589 564.875 -75.6173C566.378 -77.2782 567.754 -79.0122 569.123 -80.7391C573.688 -86.4936 578.191 -92.1698 587.155 -94.8053C598.809 -98.2318 610.12 -108.854 601.208 -114.679C597.71 -116.965 593.103 -117.879 589.253 -118.643C583.293 -119.825 579.146 -120.647 583.727 -125.643C586.374 -128.53 589.782 -130.488 592.735 -132.184C598.191 -135.319 602.09 -137.559 596.752 -143.118C588.526 -151.684 602.236 -158.88 607.72 -160.935C608.68 -161.295 609.882 -161.624 611.143 -161.968C617.086 -163.593 624.353 -165.578 613.89 -172.928C607.547 -177.384 600.946 -177.297 594.474 -177.211C588.007 -177.125 581.668 -177.041 575.843 -181.494L575.353 -181.869C564.091 -190.48 560.606 -193.144 549.793 -193.144C538.825 -193.144 542.938 -199.654 546.366 -201.71C549.793 -203.766 543.623 -204.108 537.454 -204.451C531.284 -204.794 503.177 -211.989 531.627 -216.786C554.866 -220.705 560.037 -216.392 564.328 -212.814C565.29 -212.011 566.207 -211.246 567.274 -210.619C571.26 -208.275 576.368 -210.099 581.173 -211.815C583.393 -212.608 585.548 -213.377 587.497 -213.702C589.758 -214.079 593.077 -211.419 597.472 -207.898C605.071 -201.809 615.884 -193.144 630 -193.144V-286H0V617.207H16.4527C19.7445 609.933 25.4885 605.723 30.6744 601.922ZM516.73 -99.8669C522.037 -104.171 526.545 -107.826 531.63 -107.826C533.384 -107.826 534.955 -107.746 536.375 -107.674C542.72 -107.35 546.03 -107.181 549.111 -115.022C552.882 -124.616 558.366 -126.329 560.765 -122.902C561.657 -121.629 560.75 -120.64 559.733 -119.531C558.013 -117.654 555.977 -115.432 561.793 -110.91C566.009 -107.632 570.51 -106.985 573.383 -106.572C576.817 -106.078 577.926 -105.919 573.447 -102.001C571.226 -100.058 569.23 -97.8407 567.229 -95.618C561.82 -89.6089 556.378 -83.5632 546.369 -82.8128C532.659 -81.7849 528.888 -79.3864 528.203 -74.5894C528.06 -73.5927 528.051 -72.6403 528.043 -71.7877C528.011 -68.5368 527.993 -66.7353 520.662 -69.4498C517.33 -70.6834 514.442 -72.3169 511.582 -73.9343C506.5 -76.8091 501.508 -79.6331 494.269 -80.0717C482.958 -80.757 481.929 -84.8684 489.128 -86.9246C494.886 -88.5695 498.611 -88.9807 499.753 -88.9807C506.682 -91.7193 512.021 -96.0482 516.73 -99.8669ZM506.951 -117.42C505.58 -115.022 492.555 -112.28 489.128 -115.022C485.357 -117.42 490.841 -120.847 496.326 -120.847C501.81 -120.847 508.322 -119.819 506.951 -117.42ZM482.958 -94.8058C497.697 -97.2043 508.665 -101.659 511.407 -107.826C514.149 -113.994 511.407 -113.994 503.524 -110.91C501.033 -109.936 498.201 -109.167 495.448 -108.419C489.486 -106.801 483.896 -105.283 482.958 -102.001C482.538 -100.533 481.958 -99.289 481.482 -98.2701C480.405 -95.9605 479.866 -94.8058 482.958 -94.8058ZM128.883 136.821C124.77 142.303 125.455 148.128 139.851 143.331C144.188 141.886 148.027 140.317 151.574 138.867L151.574 138.866C159.803 135.502 166.463 132.78 174.128 133.737C179.075 134.355 181.79 138.25 184.445 142.056C187.676 146.689 190.816 151.192 197.778 149.499C210.46 146.415 223.143 138.534 226.228 123.458C227.277 118.329 228.406 114.945 229.303 112.254C231.045 107.034 231.917 104.419 229.655 96.7318C226.228 85.082 226.228 78.5717 229.655 70.6909C233.083 62.8102 227.941 58.6985 221.086 65.2087C217.886 68.2481 216.478 72.2585 215.085 76.2285C213.494 80.7619 211.921 85.2427 207.718 88.1654C199.835 93.6477 203.605 97.4168 210.46 98.1021C217.316 98.7874 221.429 108.381 210.46 109.067C206.86 109.292 204.183 108.926 201.883 108.612C197.178 107.969 194.055 107.542 187.838 112.836C178.583 120.716 168.643 123.8 154.247 128.255C149.322 129.779 145.159 130.862 141.689 131.764L141.689 131.764C135.018 133.499 130.912 134.567 128.883 136.821ZM45.2499 145.539L45.2493 145.539C39.3718 146.632 36.5919 147.149 34.2798 142.988C33.5943 138.534 42.8489 133.737 50.7325 129.968C55.8643 127.515 59.108 122.593 62.7326 117.093C64.6762 114.144 66.7293 111.029 69.2418 108.039C74.4784 101.807 79.3522 104.643 84.391 107.574C86.2784 108.672 88.1889 109.784 90.1504 110.438C97.3484 112.836 99.7477 111.123 100.433 106.326C101.119 101.529 111.059 99.8154 121.342 101.186C125.229 101.704 129.508 101.635 133.494 101.57H133.495C140.052 101.463 145.816 101.37 147.735 103.927C150.82 108.039 144.307 109.752 135.052 111.123C125.798 112.493 124.084 112.836 121.342 119.346C118.6 125.856 109.345 134.422 102.49 138.534C99.516 140.318 98.9288 142.295 98.4337 143.962C97.7875 146.138 97.2981 147.785 91.8642 147.785C87.9107 147.785 83.5502 146.971 78.8065 146.086C72.0343 144.822 64.4811 143.412 56.2167 144.016C51.6455 144.351 48.0898 145.011 45.2545 145.538L45.2539 145.538L45.2531 145.538L45.2523 145.539L45.2515 145.539L45.2507 145.539L45.2499 145.539ZM133 158.218C141.922 159.218 151.977 160.345 161.102 158.064C170.7 155.666 177.555 152.582 177.555 147.785C177.555 142.988 168.986 142.303 160.417 145.044C158.585 145.63 156.095 146.279 153.34 146.997L153.339 146.997C143.204 149.637 129.469 153.215 131.625 158.064C132.08 158.115 132.538 158.166 133 158.218ZM142.593 191.987C139.508 196.784 130.254 202.951 132.653 194.728C135.052 186.505 149.791 174.855 154.247 178.281C158.206 181.326 156.754 182.477 152.534 185.82C152.004 186.239 151.431 186.693 150.82 187.19C148.146 189.362 146.857 189.416 145.881 189.457C144.855 189.5 144.174 189.529 142.593 191.987ZM112.43 198.497C114.487 201.581 123.398 196.099 127.169 191.987C130.939 187.875 125.455 184.791 119.285 187.19C113.116 189.589 109.345 196.441 112.43 198.497ZM62.3866 259.145C54.8458 259.488 47.3049 260.858 18.8556 270.452C-0.339214 274.907 23.997 239.614 32.2234 232.076C34.8944 229.629 36.4453 227.506 37.6385 225.873L37.6387 225.873C40.1203 222.476 41.0554 221.196 47.3049 223.51C55.7286 226.629 57.6209 225.206 62.8041 221.307C63.3153 220.923 63.8585 220.514 64.4432 220.084C66.6206 218.48 68.3765 215.995 70.3387 213.218C74.2453 207.69 78.9694 201.005 89.4649 197.812C105.232 193.015 97.6912 201.924 93.5781 204.665C93.2037 204.914 92.7441 205.212 92.2201 205.552C86.9863 208.943 75.3184 216.502 77.8109 221.797C79.1388 224.618 83.0386 223.662 86.6302 222.782C90.4557 221.845 93.9316 220.993 93.5781 224.881C93.0905 230.242 86.5345 232.83 80.4457 235.234C77.9735 236.21 75.5784 237.156 73.6978 238.244C67.1853 242.013 62.3866 246.81 64.4432 251.264C64.82 252.081 65.2428 252.851 65.6358 253.566L65.6361 253.567C67.3877 256.757 68.5453 258.865 62.3866 259.145ZM143.606 324.901C152.207 321.934 154.003 321.315 164.53 322.192C176.87 323.22 183.382 319.793 185.096 316.024C186.81 312.255 179.269 309.514 168.643 308.828C158.018 308.143 144.993 302.661 144.65 296.493C144.567 295.011 144.841 293.43 145.129 291.77C146.039 286.519 147.087 280.469 137.452 274.221C127.897 268.026 120.094 269.999 113.015 271.788C110.698 272.374 108.458 272.94 106.26 273.193C102.834 273.589 101.84 274.44 100.881 275.26C99.347 276.573 97.9053 277.806 86.7227 276.963C80.8361 276.518 76.605 275.859 72.9333 275.286C65.2738 274.091 60.0481 273.276 47.3049 275.592C28.4529 279.018 21.2548 283.815 21.5976 287.927C21.8204 290.6 26.5336 290.522 32.5356 290.422C35.7665 290.368 39.3707 290.309 42.849 290.668C52.7892 291.696 60.6728 299.92 64.4432 304.374C66.6128 306.937 68.215 305.529 70.6212 303.415C72.3965 301.855 74.6095 299.91 77.8109 298.892C85.3517 296.493 93.9208 296.493 99.4051 303.003C99.8636 303.548 100.31 304.082 100.747 304.605L100.79 304.657L100.794 304.662C105.556 310.366 109.135 314.653 114.144 314.653C119.628 314.653 121.342 316.024 123.056 319.793C124.77 323.562 129.911 328.36 138.48 326.646C140.443 325.992 142.126 325.412 143.606 324.901ZM198.464 347.205C196.407 342.751 192.98 341.037 186.81 340.695C182.354 340.083 179.955 339.324 171.728 335.555C163.502 331.786 155.275 334.527 151.848 336.926C148.42 339.324 149.106 342.065 160.417 345.149C168.67 347.399 174.004 351.473 178.415 354.843L178.416 354.844C180.05 356.092 181.557 357.244 183.039 358.169C188.524 361.596 204.633 369.477 214.231 365.022C222.845 361.024 216.272 358.959 211.117 357.339C210.529 357.154 209.959 356.974 209.432 356.799C204.291 355.086 200.52 351.659 198.464 347.205ZM325.972 341.723C328.028 344.464 332.484 343.436 337.283 341.723C338.891 341.148 340.654 340.921 342.131 340.73C345.062 340.351 346.873 340.117 344.138 337.611C340.523 334.298 336.113 335.75 332.072 337.081C331.516 337.264 330.967 337.445 330.428 337.611C325.972 338.981 324.944 340.352 325.972 341.723ZM342.767 369.819C336.94 373.246 322.544 368.791 317.06 361.596C312.947 354.743 319.802 346.862 329.4 347.548C338.997 348.233 343.453 346.52 349.623 343.778C354.509 341.607 359.395 342.66 365.814 344.043C367.5 344.407 369.292 344.793 371.217 345.149C380.471 346.862 381.5 349.603 378.758 351.659C377.386 352.687 375.673 352.601 373.102 352.473C370.531 352.344 367.104 352.173 362.305 353.03C356.364 354.09 352.525 358.958 349.08 363.326C346.959 366.014 344.987 368.514 342.767 369.819ZM261.797 398.566L261.797 398.566C265.7 399.598 269.821 400.688 273.872 401C282.784 401.685 283.469 399.972 283.469 395.517C283.469 391.063 284.497 385.238 294.438 384.21C304.378 383.182 306.777 378.042 298.551 376.672C295.334 376.136 291.646 375.705 287.977 375.276C282.265 374.608 276.601 373.946 272.844 372.903C266.674 371.19 263.932 372.903 258.447 377.357C256.713 378.766 255.459 380.14 254.305 381.404C251.81 384.138 249.785 386.357 244.394 387.294C243.593 387.433 242.856 387.556 242.177 387.668C236.182 388.663 234.792 388.894 234.47 393.325C234.872 395.928 242.846 397.213 249.193 396.545C252.745 396.171 257.113 397.327 261.796 398.565L261.797 398.566ZM217.659 416.418C216.476 414.055 212.381 412.19 208.571 410.455C204.65 408.67 201.032 407.023 201.206 405.111C205.319 398.601 212.517 403.055 221.086 409.565C227.781 414.652 236.987 418.484 243.963 421.387L243.969 421.389L243.97 421.39L243.974 421.391C245.922 422.202 247.696 422.941 249.193 423.614C256.048 426.698 265.303 434.236 252.963 435.264C240.624 436.292 220.058 421.215 217.659 416.418ZM245.422 412.307C237.196 410.936 235.825 409.565 236.511 406.139C237.212 403.803 239.826 403.697 243.7 403.54C245.507 403.467 247.589 403.382 249.878 403.055C251.053 402.888 251.963 402.729 252.71 402.599C253.904 402.391 254.68 402.255 255.453 402.272C256.886 402.304 258.308 402.859 262.366 404.444C263.131 404.743 263.99 405.078 264.96 405.454C272.02 408.186 271.665 409.102 271.236 410.214C271.019 410.776 270.782 411.387 271.472 412.307C273.529 415.048 275.586 419.845 270.101 422.929C267.012 424.666 262.182 421.51 257.082 418.177C253.129 415.594 249.014 412.905 245.422 412.307ZM280.727 213.915C268.045 211.86 259.133 201.58 257.076 194.727C256.048 189.245 257.076 180.679 261.875 186.504C266.674 192.329 272.501 197.126 274.9 193.357C277.299 189.588 280.042 186.504 283.126 190.273C283.637 190.897 284.129 191.549 284.641 192.227C287.221 195.649 290.312 199.746 298.894 204.321C309.176 209.804 308.148 215.971 303.007 217.684C299.964 218.698 297.161 217.912 292.752 216.675L292.752 216.675L292.751 216.675L292.75 216.675L292.748 216.674L292.747 216.674L292.746 216.674L292.745 216.673C289.704 215.821 285.9 214.754 280.727 213.915ZM293.067 193.357C298.894 199.524 304.721 199.867 308.148 197.811C311.223 195.967 304.368 191.641 299.46 188.544C298.897 188.189 298.359 187.849 297.865 187.532C293.067 184.448 287.112 188.902 293.067 193.357ZM425.373 176.91C417.49 175.539 416.119 171.428 422.974 169.029C432.185 167.442 437.57 171.15 444.311 175.792C444.844 176.16 445.386 176.533 445.939 176.91C453.48 182.05 447.653 185.476 441.826 186.847C438.85 187.547 436.679 185.297 434.216 182.746C431.857 180.301 429.23 177.581 425.373 176.91ZM397.61 147.1C390.754 153.61 384.927 159.435 398.295 157.722C407.711 156.515 410.495 153.608 414.791 149.121C416.595 147.238 418.665 145.077 421.603 142.646C431.543 134.422 439.427 131.338 450.395 135.108C454.985 136.685 457.354 136.642 459.06 136.611C461.43 136.568 462.518 136.549 466.505 140.932C473.36 148.471 479.53 147.785 478.502 142.646C478.062 140.447 478.438 138.875 478.824 137.26C479.34 135.1 479.875 132.861 478.502 128.94C478.22 128.136 477.972 127.389 477.74 126.691C475.994 121.439 475.178 118.984 468.219 116.262C460.335 113.178 455.537 111.808 451.766 116.262C447.996 120.716 442.854 122.43 432.914 123.115C424.79 123.675 423.764 124.922 420.479 128.913L420.478 128.913C419.744 129.805 418.897 130.835 417.833 132.024C412.982 137.443 406.232 141.675 400.745 145.115C399.64 145.807 398.586 146.468 397.61 147.1ZM360.248 137.163C360.248 136.195 359.954 135.181 359.633 134.075C358.705 130.878 357.554 126.914 362.648 121.059C362.779 120.928 362.911 120.795 363.044 120.66L363.309 120.393C366.616 117.045 370.753 112.857 379.1 113.178C388.012 113.521 382.185 119.346 376.358 124.486C373.748 126.788 372.169 129.572 370.667 132.222C368.816 135.486 367.081 138.545 363.676 140.247C359.271 142.449 359.409 141.856 359.848 139.965C360.024 139.208 360.248 138.242 360.248 137.163Z" fill="#00BFA8"/>
<path d="M529.512 278.118L550.723 294.875L546.811 321.617L521.688 331.601L500.477 314.843L504.389 288.102L529.512 278.118Z" fill="#D87A22"/>
<path d="M6.90985 600.769C11.3179 610.345 13.0063 613.314 13.5382 633.542C7.53367 630.283 -4.74742 623.104 -5.83528 620.46C-7.19515 617.157 2.50174 591.192 6.90985 600.769Z" fill="white"/>
<path d="M44.1594 609.698C40.8418 609.73 26.9078 609.864 16.1995 600.679C14.1628 596.055 19.4843 597.331 26.448 596.932C33.4118 596.534 47.4771 609.666 44.1594 609.698Z" fill="white"/>
<path d="M58.678 601.598C54.6641 598.319 43.5292 579.521 41.1379 572.578C37.3739 561.006 49.1133 573.828 56.4905 581.718C63.8677 589.607 62.692 604.876 58.678 601.598Z" fill="white"/>
<path d="M4.66996 575.582C13.6699 579.808 24.8166 571.795 33.4128 563.033C37.3542 559.015 45.566 550.644 30.6531 552.446C15.7401 554.247 -4.33003 571.356 4.66996 575.582Z" fill="white"/>
<path d="M-5.51168 585.96C-6.06367 597.243 -12.3048 603.605 -14.6057 605.95C-19.5 603.123 -29.0281 596.934 -27.9862 594.8C-26.6838 592.132 -23.0853 587.124 -17.4945 582.095C-11.9038 577.066 -4.95973 574.678 -5.51168 585.96Z" fill="white"/>
<path d="M-17.606 570.819C-22.5595 573.188 -34.5227 571.313 -41.2105 566.07C-46.2125 563.129 -36.6117 561.383 -29.3326 559.323C-22.0535 557.263 -12.6526 568.45 -17.606 570.819Z" fill="white"/>
<path d="M-23.9256 535.721C-23.2359 538.368 -30.7778 547.396 -41.3367 553.469C-42.1141 553.925 -51.9121 557.549 -54.2509 555.913C-56.5896 554.277 -52.0041 548.263 -46.4198 542.571C-40.8356 536.878 -24.6154 533.074 -23.9256 535.721Z" fill="white"/>
<path d="M-12.4288 524.002C-10.4251 525.309 -0.788651 535.78 -1.91119 547.45C-2.41373 552.675 -2.41193 564.041 -7.37066 565.746C-12.3294 567.45 -15.7678 555.545 -17.5073 547.268C-19.2469 538.992 -14.4325 522.694 -12.4288 524.002Z" fill="white"/>
<path d="M43.1036 536.404C38.1763 541.427 29.2614 545.824 20.294 544.915C11.3003 541.353 4.36276 544.405 13.2307 535.365C22.0987 526.326 48.0308 531.382 43.1036 536.404Z" fill="white"/>
<path d="M21.1484 497.145C21.2469 507.094 16.7401 521.068 6.19482 528.468C-0.408866 531.849 4.08717 516.546 5.67708 509.565C7.26699 502.585 21.05 487.195 21.1484 497.145Z" fill="white"/>
<path d="M-23.4847 479.662C-18.137 483.591 -9.74792 493.129 -4.3216 505.018C0.602715 514.068 -6.53687 515.986 -16.5882 506.132C-26.6395 496.278 -28.8326 475.733 -23.4847 479.662Z" fill="white"/>
<path d="M66.6225 566.03C55.6512 563.813 42.9328 552.658 44.5621 549.658C46.2045 547.983 51.5192 548.596 58.1806 551.185C64.8418 553.775 77.5938 568.247 66.6225 566.03Z" fill="white"/>
<path d="M63.4368 512.328C43.4259 501.906 30.8847 508.66 29.932 512.981C29.6301 515.969 35.6606 521.881 44.6215 522.127C53.5824 522.373 83.4478 522.75 63.4368 512.328Z" fill="white"/>
<path d="M14.9207 471.333C19.02 483.234 32.4414 498.363 36.7445 497.327C40.6295 498.727 38.0059 490.681 30.5299 472.842C23.0539 455.003 10.8214 459.432 14.9207 471.333Z" fill="white"/>
<path d="M65.8086 483.78C53.5105 481.576 42.3093 489.644 45.3444 494.59C48.3598 497.547 58.6542 498.443 71.5569 494.671C84.4595 490.898 78.1069 485.984 65.8086 483.78Z" fill="white"/>
<path d="M52.5054 447.091C43.6757 460.112 43.1566 474.711 47.4925 476.991C50.1729 479.619 53.4446 474.944 59.5938 459.295C65.7431 443.647 61.335 434.071 52.5054 447.091Z" fill="white"/>
<path d="M14.1921 431.206C21.8784 436.771 37.527 442.259 41.4489 436.252C44.7203 431.577 32.9615 416.763 14.3828 416.942C-4.19592 417.12 6.50578 425.641 14.1921 431.206Z" fill="white"/>
<path d="M31.05 391.242C35.8325 405.127 53.6227 425.852 59.2266 422.15C63.5167 419.787 59.0756 406.894 50.0163 396.699C40.9569 386.503 26.2675 377.357 31.05 391.242Z" fill="white"/>
<path d="M73.1998 425.996C69.8296 420.722 78.9812 406.703 97.954 412.823C116.927 418.943 78.5933 434.568 73.1998 425.996Z" fill="white"/>
<path d="M116.605 453.441C107.033 458.508 82.4626 456.754 82.0751 451.119C82.016 445.149 85.9578 441.131 94.9122 440.713C103.867 440.296 126.177 448.374 116.605 453.441Z" fill="white"/>
<path d="M72.2469 463.817C69.2906 466.831 71.0639 478.423 95.056 488.807C119.048 499.19 77.174 458.795 72.2469 463.817Z" fill="white"/>
<path d="M86.727 384.737C72.7995 385.534 64.9619 398.214 69.3175 402.484C74.0343 409.736 79.5923 401.39 88.4875 395.003C97.3828 388.615 100.654 383.94 86.727 384.737Z" fill="white"/>
<path d="M38.6381 353.357C38.0993 365.966 55.5806 389.017 61.8415 384.644C66.7884 381.612 66.3746 373.324 57.6241 360.804C48.8737 348.284 39.177 340.748 38.6381 353.357Z" fill="white"/>
<path d="M71.3149 369.628C70.5793 362.338 85.7878 356.885 98.8611 370.358C111.934 383.832 72.3659 375.256 71.3149 369.628Z" fill="white"/>
<path d="M42.7182 329.768C52.6251 325.03 83.988 342.64 79.3958 347.991C78.4302 350.985 69.1406 351.074 58.8003 345.535C48.46 339.995 32.8112 334.507 42.7182 329.768Z" fill="white"/>
<path d="M83.8697 330.7C88.1334 325.684 73.0105 306.26 52.809 310.102C32.6076 313.945 79.5997 335.053 83.8697 330.7Z" fill="white"/>
<path d="M122.472 375.771C101.771 362.702 92.3178 346.208 96.9364 343.51C97.7216 342.71 100.569 341.817 108.262 348.045C115.955 354.274 143.173 388.839 122.472 375.771Z" fill="white"/>
<path d="M123.924 321.36C105.996 320.206 97.1072 327.256 99.1568 333.207C101.207 339.158 109.819 337.748 126.677 331.284C143.534 324.821 141.852 322.515 123.924 321.36Z" fill="white"/>
<path d="M78.4303 283.985C78.207 294.933 90.2946 309.411 97.232 306.359C99.8599 303.681 100.845 302.676 89.6904 281.887C78.5355 261.098 78.6536 273.037 78.4303 283.985Z" fill="white"/>
<path d="M116.107 269.029C104.932 279.751 102.126 298.02 109.806 302.922C117.781 304.172 119.615 288.233 128.438 274.55C137.261 260.866 127.282 258.308 116.107 269.029Z" fill="white"/>
<path d="M135.822 283.102C125.337 296.47 123.819 310.747 129.489 313.678C135.783 312.622 149.914 298.888 149.769 284.295C149.625 269.702 146.307 269.734 135.822 283.102Z" fill="white"/>
<path d="M173.361 254.217C161.404 253.005 149.211 261.414 150.913 265.71C154.966 272.968 166.233 271.533 176.77 263.472C187.308 255.41 185.317 255.429 173.361 254.217Z" fill="white"/>
<path d="M156.3 206.618C145.164 221.319 140.414 244.251 150.742 248.464C162.37 250.011 164.853 232.739 165.76 223.775C166.667 214.811 167.436 191.917 156.3 206.618Z" fill="white"/>
<path d="M182.776 166.23C167.337 181.968 170.142 197.198 174.15 199.813C181.16 204.058 189.299 188.39 189.562 181.423C189.825 174.455 198.215 150.493 182.776 166.23Z" fill="white"/>
<path d="M204.6 192.224C191.033 196.003 174.642 216.061 180.01 221.98C186.014 225.239 199.166 213.172 204.081 206.823C208.995 200.474 218.166 188.445 204.6 192.224Z" fill="white"/>
<path d="M219.729 245.812C206.025 235.661 204.264 225.396 209.862 221.03C212.831 219.343 218.836 222.602 223.546 229.191C228.256 235.779 233.433 255.962 219.729 245.812Z" fill="white"/>
<path d="M220.662 206C218.711 209.999 224.124 220.561 251.316 218.974C278.507 217.386 224.565 198.003 220.662 206Z" fill="white"/>
<path d="M240.253 173.971C227.994 175.747 217.496 187.788 220.859 192.4C222.548 195.368 229.531 196.96 238.085 189.581C246.638 182.202 252.512 172.195 240.253 173.971Z" fill="white"/>
<path d="M236.613 141.501C219.125 151.288 221.562 162.873 224.906 165.494C227.58 167.459 230.576 168.425 243.676 151.052C256.775 133.678 254.102 131.714 236.613 141.501Z" fill="white"/>
<path d="M201.617 159.084C196.144 176.053 200.559 186.292 205.191 184.921C209.159 183.557 213.403 176.55 209.303 164.649C205.204 152.748 207.09 142.116 201.617 159.084Z" fill="white"/>
<path d="M273.672 164.695C258.602 150.577 250.363 156.295 248.747 160.622C247.453 163.951 255.461 168.518 262.458 171.436C269.454 174.354 288.742 178.812 273.672 164.695Z" fill="white"/>
<path d="M279.019 202.124C273.875 185.257 263.561 182.371 258.627 186.73C254.022 190.755 257.057 195.701 268.817 210.514C280.576 225.327 284.163 218.99 279.019 202.124Z" fill="white"/>
<path d="M317.668 184.837C310.586 173.296 298.564 165.451 294.307 171.13C291.357 174.807 296.718 180.063 308.747 188.571C320.775 197.079 324.75 196.378 317.668 184.837Z" fill="white"/>
<path d="M315.231 139.751C298.275 136.265 286.778 147.985 290.819 153.916C294.524 159.519 302.795 157.118 322.996 153.276C343.198 149.433 332.187 143.237 315.231 139.751Z" fill="white"/>
<path d="M342.561 118.592C328.266 115.744 316.736 124.147 321.446 130.736C325.822 136.996 338.744 135.213 346.319 129.502C353.894 123.79 356.856 121.44 342.561 118.592Z" fill="white"/>
<path d="M359.412 178.465C349.058 171.599 337.653 159.105 341.937 156.079C342.856 154.352 343.894 152.743 351.922 159.3C359.95 165.856 369.765 185.331 359.412 178.465Z" fill="white"/>
<path d="M390.992 150.964C378.004 146.113 361.133 151.251 362.835 155.546C364.878 160.833 383.483 163.308 390.085 159.928C396.687 156.548 403.98 155.815 390.992 150.964Z" fill="white"/>
<path d="M423.005 167.241C408.381 164.728 393.475 167.193 395.866 174.135C398.257 181.078 415.824 179.251 423.419 175.529C431.013 171.808 437.629 169.754 423.005 167.241Z" fill="white"/>
<path d="M475.101 201.236C471.022 191.325 460.3 180.814 453.718 186.184C447.792 190.884 457.514 201.073 469.228 211.243C480.941 221.413 479.181 211.147 475.101 201.236Z" fill="white"/>
<path d="M86.1801 564.185C79.1967 562.593 74.651 572.587 79.742 584.147C84.833 595.707 93.1898 568.429 86.1801 564.185Z" fill="white"/>
<path d="M103.018 589.231C98.2548 577.336 103.116 565.68 109.436 567.278C112.944 566.776 118.115 572.502 115.296 589.445C112.478 606.388 107.78 601.126 103.018 589.231Z" fill="white"/>
<path d="M84.0317 548.284C93.7278 555.819 101.382 558.068 103.662 553.735C106.947 550.386 102.887 542.465 89.9251 540.267C76.9634 538.07 74.3355 540.749 84.0317 548.284Z" fill="white"/>
<path d="M122.918 521.376C111.979 522.476 103.465 533.835 107.151 537.449C109.831 540.076 111.821 540.057 132.647 532.229C153.473 524.4 133.856 520.276 122.918 521.376Z" fill="white"/>
<path d="M146.206 561.287C133.153 549.803 120.868 548.926 118.575 551.933C117.603 554.264 118.608 555.25 125.966 561.149C133.323 567.049 159.26 572.77 146.206 561.287Z" fill="white"/>
<path d="M173.444 530.842C158.781 524.349 148.263 534.4 147.987 540.042C147.704 545.02 160.022 549.213 178.226 544.726C196.431 540.24 188.107 537.335 173.444 530.842Z" fill="white"/>
<path d="M144.085 481.039C135.649 500.357 143.046 510.237 147.698 510.856C154.99 510.122 155.877 499.168 156.041 482.251C156.206 465.333 152.52 461.72 144.085 481.039Z" fill="white"/>
<path d="M160.725 519.686C157.039 516.073 160.535 500.45 174.114 497.998C187.693 495.546 170.047 522.914 160.725 519.686Z" fill="white"/>
<path d="M215.765 515.841C201.088 508.021 187.568 516.444 189.27 520.739C191.313 526.026 200.267 525.609 208.229 525.532C216.192 525.456 230.441 523.66 215.765 515.841Z" fill="white"/>
<path d="M225.344 477.937C213.421 480.042 202.928 492.746 207.277 496.353C210.628 499.638 215.922 498.26 227.787 490.186C239.652 482.111 237.267 475.832 225.344 477.937Z" fill="white"/>
<path d="M274.911 491.06C258 492.217 241.248 509.294 246.28 514.884C251.641 520.14 258.546 513.772 268.761 506.708C278.977 499.645 291.821 489.903 274.911 491.06Z" fill="white"/>
<path d="M308.692 451.265C297.799 457.008 287.63 468.715 292.32 473.313C298.016 478.897 305.932 474.178 317.738 460.134C329.543 446.09 319.584 445.522 308.692 451.265Z" fill="white"/>
<path d="M302.089 488.146C301.367 482.182 313.573 475.1 327.907 481.928C342.242 488.755 302.477 493.781 302.089 488.146Z" fill="white"/>
<path d="M21.3003 -22.1555C17.1277 -16.9131 4.64288 -4.12339 -1.4079 -1.6925C-3.23874 -4.35659 -7.18427 -10.5692 -8.31967 -14.107C-9.73892 -18.5293 -7.79452 -21.5928 4.90787 -27.6231C19.0792 -33.6374 25.4729 -27.3979 21.3003 -22.1555Z" fill="white"/>
<path d="M35.6395 -17.0042C41.0398 -13.8603 49.5293 1.94998 47.6606 11.3306C47.505 16.2586 42.7783 14.3618 38.9889 11.6763C35.1995 8.99074 28.9642 1.72479 27.5947 -7.10368C26.2251 -15.9322 30.2393 -20.148 35.6395 -17.0042Z" fill="white"/>
<path d="M63.1732 -22.4315C59.7598 -19.3842 49.9031 -18.17 43.4763 -21.4719C17.7688 -34.6798 35.3794 -33.0181 42.8826 -33.9642C50.3857 -34.9102 66.5866 -25.4787 63.1732 -22.4315Z" fill="white"/>
<path d="M6.23262 -53.902C20.922 -53.7411 34.9608 -48.0056 32.574 -44.8001C30.6131 -40.2679 16.9007 -35.8645 5.16576 -37.4619C-6.56914 -39.0593 -8.45672 -54.0628 6.23262 -53.902Z" fill="white"/>
<path d="M31.4127 -59.0613C38.5823 -56.4856 55.4502 -54.0975 60.6068 -68.4364C65.7635 -82.7753 29.7758 -70.2429 31.4127 -59.0613Z" fill="white"/>
<path d="M34.5895 -93.2521C37.1442 -85.292 30.4263 -75.8177 20.0278 -65.6491C3.31131 -55.4029 8.48454 -71.2105 11.5052 -78.522C14.5259 -85.8335 32.0349 -101.212 34.5895 -93.2521Z" fill="white"/>
<path d="M-19.7162 -58.7398C-10.4602 -58.7853 1.54909 -68.4955 4.60289 -78.7445C5.0361 -91.0787 -12.265 -81.1325 -19.3589 -77.3911C-26.4529 -73.6496 -28.9721 -58.6942 -19.7162 -58.7398Z" fill="white"/>
<path d="M79.2626 -42.2324C72.7198 -35.2534 60.6514 -33.3288 54.3996 -39.126C52.5546 -44.8749 59.2227 -49.9432 69.6803 -52.3258C80.1379 -54.7084 85.8054 -49.2114 79.2626 -42.2324Z" fill="white"/>
<path d="M106.205 -34.2989C103.468 -26.103 93.1193 -20.3406 82.5198 -18.4002C69.1409 -17.5185 75.4495 -29.7884 85.0556 -34.8243C94.6616 -39.8602 108.942 -42.4949 106.205 -34.2989Z" fill="white"/>
<path d="M60.5543 1.33646C63.4685 16.4982 70.1035 1.77477 72.4974 -2.49883C75.0686 -7.08903 70.5767 -14.5649 68.3816 -15.3235C66.1864 -16.0821 57.6402 -13.8252 60.5543 1.33646Z" fill="white"/>
<path d="M97.772 23.0432C95.0683 28.3017 84.509 13.6438 83.5987 3.2045C80.0235 -7.93561 87.7782 -15.6984 94.9903 -3.86845C102.202 7.96154 100.476 17.7847 97.772 23.0432Z" fill="white"/>
<path d="M131.054 -10.0834C123.659 -5.75744 110.139 -5.31827 101.266 -13.2005C95.8065 -24.1302 110.37 -25.8803 121.079 -24.4411C131.787 -23.0018 138.448 -14.4093 131.054 -10.0834Z" fill="white"/>
<path d="M154.391 4.86112C147.139 9.62894 134.044 11.3953 128.818 5.7564C127.115 0.449466 133.041 -3.89199 148.189 -5.34193C163.337 -6.79186 161.644 0.0932881 154.391 4.86112Z" fill="white"/>
<path d="M137.429 -28.2279C129.358 -29.0505 122.538 -36.6168 114.9 -49.7738C109.224 -67.4625 125.616 -61.9957 131.267 -55.0296C136.918 -48.0634 145.499 -27.4053 137.429 -28.2279Z" fill="white"/>
<path d="M150.748 -36.8955C144.856 -35.4911 148.596 -28.3996 155.716 -21.4175C158.215 -18.8055 175.264 -9.15861 168.652 -22.1574C162.041 -35.1563 156.641 -38.2999 150.748 -36.8955Z" fill="white"/>
<path d="M199.557 -39.8865C192.572 -32.7651 183.458 -32.278 173.208 -35.3276C155.38 -43.7487 176.295 -48.5143 183.481 -47.407C190.668 -46.2997 206.542 -47.0078 199.557 -39.8865Z" fill="white"/>
<path d="M225.122 -27.1208C218.854 -31.4492 213.655 -26.365 202.154 -22.6717C190.453 -18.083 193.918 -8.80727 203.474 -9.43708C213.03 -10.0669 231.391 -22.7923 225.122 -27.1208Z" fill="white"/>
<path d="M261.46 -44.6437C255.961 -38.9751 245.962 -38.2033 236.881 -40.653C228.259 -44.7135 224.503 -50.3364 235.828 -51.5344C247.154 -52.7323 266.96 -50.3122 261.46 -44.6437Z" fill="white"/>
<path d="M211.739 -77.9448C217.139 -74.801 221.655 -71.3731 221.948 -58.2965C220.822 -49.6423 210.414 -51.6658 208.143 -58.7415C205.873 -65.8172 206.339 -81.0887 211.739 -77.9448Z" fill="white"/>
<path d="M285.536 -82.1311C280.97 -81.1528 272.407 -77.4274 271.39 -65.3935C271.717 -55.2545 278.035 -55.3321 283.66 -59.0898C289.285 -62.8475 290.101 -83.1093 285.536 -82.1311Z" fill="white"/>
<path d="M333.057 -49.7764C331.07 -55.9676 317.44 -58.9078 307.458 -59.6046C298.296 -60.7881 299.496 -57.0477 301.5 -52.3253C303.503 -47.603 335.044 -43.5852 333.057 -49.7764Z" fill="white"/>
<path d="M409.179 283.717L376.398 285.085L375.66 299.189L408.28 300.906L409.179 283.717Z" fill="white"/>
<path d="M458.082 327.67L430.865 315.63L425.231 330.36L451.916 344.139L458.082 327.67Z" fill="white"/>
<path d="M459.461 360.446L469.753 332.703L486.622 339.779L473.243 367.359L459.461 360.446Z" fill="white"/>
<path d="M511.217 351.238C507.574 347.658 499.934 340.48 498.523 340.405L481.942 361.63L491.434 374.504L511.217 351.238Z" fill="white"/>
<path d="M532.319 395.66L510.271 369.308L496.47 379.631L525.038 408.094L532.319 395.66Z" fill="white"/>
<path d="M535.169 383.436L520.851 369.865L527.968 352.12L540.569 364.716L535.169 383.436Z" fill="white"/>
<path d="M551.992 391.392L538.585 402.619L555.736 421.2L569.375 413.963L551.992 391.392Z" fill="white"/>
<path d="M574.211 448.248L555.436 426.93L541.056 439.873L566.976 459.8L574.211 448.248Z" fill="white"/>
<path d="M585.231 448.828L568.36 433.355L575.803 417.837L593.927 434.701L585.231 448.828Z" fill="white"/>
<path d="M592.297 415.17L570.229 397.656L577.487 385.663L600.204 399.234L592.297 415.17Z" fill="white"/>
<path d="M606.485 380.561L589.499 367.292L595.411 355.671L611.098 368.429L606.485 380.561Z" fill="white"/>
<path d="M612.233 439.643L597.246 438.854L596.07 461.331L610.849 466.087L612.233 439.643Z" fill="white"/>
<path d="M611.739 491.325L617.695 470.425L640.55 481.351L632.715 504.362L611.739 491.325Z" fill="white"/>
<path d="M622.579 512.225L606.915 499.026L595.58 529.808L609.224 539.365L622.579 512.225Z" fill="white"/>
<path d="M605.078 483.461L589.275 472.906L577.384 505.868L589.66 516.237L605.078 483.461Z" fill="white"/>
<path d="M587.625 462.212L576.882 456.344L563.831 494.548L573.276 499.907L587.625 462.212Z" fill="white"/>
<path d="M584.488 522.152C576.907 514.977 561.481 500.612 560.423 500.556L550.753 516.399L572.706 536.117L584.488 522.152Z" fill="white"/>
<path d="M596.93 546.231L583.727 536.697L562.622 559.893L577.542 570.401L596.93 546.231Z" fill="white"/>
<path d="M553.139 580.607L560.141 565.066L535.151 552.701L529.797 570.54L553.139 580.607Z" fill="white"/>
<path d="M548.2 590.512L531.773 583.46L521.247 607.213L534.938 615.889L548.2 590.512Z" fill="white"/>
<path d="M589.841 580.33L570.7 574.461L545.84 610.276L569.948 622.594L589.841 580.33Z" fill="white"/>
<path d="M613.391 586.431L600.234 576.015L610.67 562.422L624.709 572.884L613.391 586.431Z" fill="white"/>
<path d="M604.149 636.327L581.248 626.282L573.644 644.886C579.847 647.422 592.517 652.508 593.575 652.564C594.633 652.62 601.065 641.762 604.149 636.327Z" fill="white"/>
<path d="M567.239 640.571L547.911 629.83L538.474 649.663L560.517 659.221L567.239 640.571Z" fill="white"/>
<path d="M603.742 669.451L573.206 653.26L568.918 667.618L594.605 683.555L603.742 669.451Z" fill="white"/>
<path d="M568.249 680.4L554.72 668.639L539.092 696.985L552.851 704.338L568.249 680.4Z" fill="white"/>
<path d="M643.7 177.407L648.921 207.461L634.507 209.317L629.443 179.78L643.7 177.407Z" fill="white"/>
<path d="M620.653 209.306L631.132 207.521L633.283 223.818L622.603 226.795L620.653 209.306Z" fill="white"/>
<path d="M591.737 189.591L621.959 184.889L621.375 199.06L593.343 200.403L591.737 189.591Z" fill="white"/>
<path d="M617.281 160.32L630.16 151.587L640.123 159.749L625.344 172.836L617.281 160.32Z" fill="white"/>
<path d="M614.032 173.745L601.6 178.387L591.631 146.673L603.079 147.135L614.032 173.745Z" fill="white"/>
<path d="M605.337 132.318L592.997 140.04L586.622 128.422L601.275 117.168L605.337 132.318Z" fill="white"/>
<path d="M635.995 137.373L613.34 153.894L606.491 140.725L626.044 125.151L635.995 137.373Z" fill="white"/>
<path d="M623.273 119.78L613.856 126.893L601.874 107.096L612.346 98.8139L623.273 119.78Z" fill="white"/>
<path d="M599.032 97.7909L585.075 108.549L571.247 87.3377L585.585 75.0505L599.032 97.7909Z" fill="white"/>
<path d="M620.729 92.0173L627.534 106.895L656.531 89.8513L648.986 77.1779L620.729 92.0173Z" fill="white"/>
<path d="M639.679 106.862L628.689 115.302L640.219 132.693L649.952 126.615L639.679 106.862Z" fill="white"/>
<path d="M623.712 82.3475L607.148 94.749L599.085 82.2333L612.252 68.8905L623.712 82.3475Z" fill="white"/>
<path d="M649.089 66.4089L631.893 76.7426L621.876 67.0838L640.846 54.2306L649.089 66.4089Z" fill="white"/>
<path d="M621.843 54.9436L647.797 29.7869L627.209 18.833L610.471 38.0692L621.843 54.9436Z" fill="white"/>
<path d="M602.649 42.9993L612.464 53.8498L593.227 70.4577L584.087 59.9663L602.649 42.9993Z" fill="white"/>
<path d="M589.987 43.1898L581.741 51.3577L570.102 38.2381L581.946 29.8198L589.987 43.1898Z" fill="white"/>
<path d="M569.847 54.9873L567.79 68.6131L549.979 69.5274L551.203 55.0255L569.847 54.9873Z" fill="white"/>
<path d="M610.862 22.6912L597.379 35.0002L580.117 21.0534L590.856 9.01648L610.862 22.6912Z" fill="white"/>
<path d="M583.654 3.01983L569.099 23.8504L558.435 19.4754L569.817 -4.34262L583.654 3.01983Z" fill="white"/>
<path d="M541.763 36.1486L545.078 47.0046L516.228 51.5702L514.126 40.0612L541.763 36.1486Z" fill="white"/>
<path d="M545.273 12.4721L547.396 23.1268L523.271 30.2064L520.853 17.6635L545.273 12.4721Z" fill="white"/>
<path d="M514.028 30.484L499.282 38.6573L486.619 12.0044L501.817 6.23616L514.028 30.484Z" fill="white"/>
<path d="M486.642 37.9935L471.537 46.8416L462.756 35.6755L478.579 25.4778L486.642 37.9935Z" fill="white"/>
<path d="M455.307 21.8269L441.17 32.9224L431.333 22.9262L447.653 13.4251L455.307 21.8269Z" fill="white"/>
<path d="M431.333 54.5086L418.836 61.7134L401.927 40.5946L413.614 31.6594L431.333 54.5086Z" fill="white"/>
<path d="M382.489 31.578L388.189 42.8367L362.877 56.2123L357.134 46.6623L382.489 31.578Z" fill="white"/>
<path d="M463.045 57.9099L472.85 82.6093L487.079 74.5938L477.726 52.2995L463.045 57.9099Z" fill="white"/>
<path d="M487.666 51.5268L492.065 66.8558L511.694 61.7134L505.765 46.0035L487.666 51.5268Z" fill="white"/>
</g>
<defs>
<filter id="filter0_f_2010_22230" x="-235.795" y="-370.51" width="1115.08" height="1076.73" color-interpolation-filters="sRGB">
<feFlood flood-opacity="0" result="BackgroundImageFix"/>
<feBlend in="SourceGraphic" in2="BackgroundImageFix" result="shape"/>
<feGaussianBlur stdDeviation="125" result="effect1_foregroundBlur_2010_22230"/>
</filter>
<clipPath id="clip0_2010_22230">
<rect width="630" height="512" fill="white"/>
</clipPath>
</defs>
</svg>
